<?xml version="1.0" encoding="utf-8"?>
<!-- Generator: Adobe Illustrator 28.3.0, SVG Export Plug-In . SVG Version: 6.00 Build 0)  -->
<svg version="1.1" id="_лой_2" xmlns="http://www.w3.org/2000/svg" xmlns:xlink="http://www.w3.org/1999/xlink" x="0px" y="0px"
	 viewBox="0 0 82.5 82.5" style="enable-background:new 0 0 82.5 82.5;" xml:space="preserve">
<style type="text/css">
	.st0{fill:#50C4B7;stroke:#F4F0EA;stroke-width:2.5;stroke-linecap:round;stroke-linejoin:round;}
	.st1{fill:#F4F0EA;}
</style>
<circle class="st0" cx="41.2" cy="41.3" r="40"/>
<g>
	<g>
		<path class="st1" d="M15.4,50.2c0,0.4-0.1,0.8-0.3,1.1s-0.5,0.6-0.9,0.8s-0.8,0.3-1.2,0.3H9v-8.5h4.1c0.4,0,0.7,0.1,1,0.3
			s0.5,0.5,0.7,0.8s0.2,0.7,0.2,1c0,0.4-0.1,0.8-0.3,1.2s-0.5,0.6-0.9,0.8c0.5,0.1,0.9,0.4,1.2,0.8C15.2,49.2,15.4,49.6,15.4,50.2z
			 M9.8,44.6v3.1h2.9c0.3,0,0.5-0.1,0.7-0.2c0.2-0.1,0.4-0.3,0.5-0.6c0.1-0.2,0.2-0.5,0.2-0.8s-0.1-0.5-0.2-0.8
			c-0.1-0.2-0.3-0.4-0.5-0.6c-0.2-0.1-0.4-0.2-0.7-0.2L9.8,44.6L9.8,44.6z M14.5,50c0-0.3-0.1-0.6-0.2-0.8s-0.3-0.4-0.5-0.6
			c-0.2-0.2-0.5-0.2-0.8-0.2H9.8v3.2H13c0.3,0,0.5-0.1,0.8-0.2c0.2-0.2,0.4-0.3,0.6-0.6C14.5,50.6,14.5,50.3,14.5,50z"/>
		<path class="st1" d="M16.3,50.6c0-0.4,0.1-0.7,0.3-1s0.5-0.5,0.9-0.7s0.9-0.2,1.4-0.2c0.3,0,0.6,0,0.9,0.1c0.3,0,0.6,0.1,0.9,0.2
			v-0.5c0-0.5-0.2-0.9-0.5-1.3c-0.3-0.3-0.7-0.5-1.3-0.5c-0.3,0-0.7,0.1-1,0.2c-0.3,0.1-0.7,0.3-1,0.5l-0.3-0.6
			c0.4-0.3,0.8-0.5,1.2-0.6c0.4-0.1,0.8-0.2,1.2-0.2c0.8,0,1.4,0.2,1.8,0.7s0.7,1,0.7,1.8v2.9c0,0.1,0,0.2,0.1,0.2s0.1,0.1,0.2,0.1
			v0.6c-0.1,0-0.2,0-0.2,0c-0.1,0-0.1,0-0.1,0c-0.2,0-0.4-0.1-0.5-0.2s-0.2-0.2-0.2-0.4v-0.5c-0.3,0.4-0.6,0.6-1.1,0.8
			c-0.4,0.2-0.9,0.3-1.4,0.3c-0.4,0-0.8-0.1-1.1-0.3c-0.3-0.2-0.6-0.4-0.8-0.7C16.4,51.2,16.3,50.9,16.3,50.6z M20.5,51
			c0.1-0.1,0.2-0.2,0.2-0.3s0.1-0.2,0.1-0.3v-0.9c-0.3-0.1-0.6-0.2-0.8-0.2c-0.3-0.1-0.6-0.1-0.9-0.1c-0.6,0-1.1,0.1-1.4,0.3
			c-0.4,0.2-0.5,0.5-0.5,0.9c0,0.2,0.1,0.4,0.2,0.6s0.3,0.4,0.5,0.5s0.5,0.2,0.8,0.2c0.4,0,0.8-0.1,1.1-0.2S20.3,51.3,20.5,51z"/>
		<path class="st1" d="M22.9,49.3c0-0.6,0.1-1.1,0.4-1.6c0.2-0.5,0.6-0.9,1-1.2s0.9-0.4,1.5-0.4c0.5,0,1,0.1,1.4,0.4
			c0.4,0.3,0.7,0.6,1,1v-3.9H29v7.8c0,0.1,0,0.2,0.1,0.2c0,0.1,0.1,0.1,0.2,0.1v0.6c-0.2,0-0.3,0-0.4,0c-0.2,0-0.3-0.1-0.4-0.2
			s-0.2-0.3-0.2-0.4v-0.6c-0.2,0.4-0.6,0.7-1,1c-0.4,0.2-0.9,0.4-1.3,0.4s-0.8-0.1-1.2-0.3c-0.4-0.2-0.7-0.4-0.9-0.7
			c-0.3-0.3-0.5-0.6-0.6-1C23,50.1,22.9,49.7,22.9,49.3z M28.1,50.2v-1.9c-0.1-0.3-0.3-0.5-0.5-0.8s-0.5-0.4-0.8-0.6
			c-0.3-0.1-0.6-0.2-0.9-0.2s-0.6,0.1-0.9,0.2c-0.3,0.1-0.5,0.3-0.7,0.6c-0.2,0.2-0.3,0.5-0.4,0.8s-0.2,0.6-0.2,0.9
			c0,0.3,0.1,0.7,0.2,1s0.3,0.6,0.5,0.8s0.5,0.4,0.7,0.5c0.3,0.1,0.6,0.2,0.9,0.2c0.2,0,0.4,0,0.6-0.1s0.4-0.2,0.6-0.3
			s0.4-0.3,0.5-0.5C28,50.6,28.1,50.4,28.1,50.2z"/>
		<path class="st1" d="M33.5,52.5c-0.4,0-0.9-0.1-1.2-0.3c-0.4-0.2-0.7-0.4-1-0.7s-0.5-0.6-0.7-1s-0.2-0.8-0.2-1.3
			c0-0.6,0.1-1.1,0.4-1.6s0.6-0.9,1.1-1.2s1-0.4,1.6-0.4s1.2,0.1,1.6,0.4c0.5,0.3,0.8,0.7,1.1,1.2s0.4,1,0.4,1.6c0,0.1,0,0.1,0,0.2
			s0,0.1,0,0.1h-5.4c0,0.4,0.2,0.8,0.4,1.2c0.2,0.3,0.5,0.6,0.8,0.8s0.7,0.3,1.1,0.3c0.4,0,0.8-0.1,1.2-0.3s0.6-0.5,0.8-0.8l0.7,0.2
			c-0.1,0.3-0.3,0.6-0.6,0.8s-0.6,0.4-0.9,0.6S33.9,52.5,33.5,52.5z M31.2,49h4.6c0-0.5-0.2-0.8-0.4-1.2c-0.2-0.3-0.5-0.6-0.8-0.8
			s-0.7-0.3-1.1-0.3c-0.4,0-0.8,0.1-1.1,0.3s-0.6,0.5-0.8,0.8C31.3,48.1,31.2,48.5,31.2,49z"/>
		<path class="st1" d="M40.4,51.7l5.8-7.1h-5.7v-0.7h6.7v0.7l-5.7,7.1h5.7v0.7h-6.8V51.7z"/>
		<path class="st1" d="M51.1,52.5c-0.5,0-0.9-0.1-1.3-0.3s-0.7-0.4-1-0.7s-0.5-0.6-0.6-1C48,50.1,48,49.7,48,49.3s0.1-0.9,0.2-1.2
			c0.2-0.4,0.4-0.7,0.6-1c0.3-0.3,0.6-0.5,1-0.7s0.8-0.3,1.2-0.3s0.9,0.1,1.2,0.3s0.7,0.4,1,0.7s0.5,0.6,0.6,1
			c0.2,0.4,0.2,0.8,0.2,1.2s-0.1,0.8-0.2,1.2c-0.2,0.4-0.4,0.7-0.6,1c-0.3,0.3-0.6,0.5-1,0.7C52,52.4,51.6,52.5,51.1,52.5z
			 M48.8,49.3c0,0.5,0.1,0.9,0.3,1.3c0.2,0.4,0.5,0.7,0.8,0.9s0.7,0.3,1.1,0.3c0.4,0,0.8-0.1,1.1-0.3s0.6-0.5,0.8-0.9
			s0.3-0.8,0.3-1.3s-0.1-0.9-0.3-1.3c-0.2-0.4-0.5-0.7-0.8-0.9s-0.7-0.3-1.1-0.3c-0.4,0-0.8,0.1-1.1,0.3s-0.6,0.5-0.8,0.9
			C48.9,48.4,48.8,48.8,48.8,49.3z"/>
		<path class="st1" d="M60.8,52.4H60v-3.5c0-0.7-0.1-1.3-0.3-1.6s-0.6-0.5-1-0.5c-0.3,0-0.6,0.1-0.9,0.2c-0.3,0.2-0.6,0.4-0.8,0.6
			c-0.2,0.3-0.4,0.6-0.5,0.9v3.8h-0.8v-6.2h0.7v1.4c0.2-0.3,0.4-0.6,0.7-0.8s0.6-0.4,0.9-0.5c0.3-0.1,0.7-0.2,1.1-0.2
			c0.3,0,0.6,0.1,0.9,0.2s0.4,0.3,0.6,0.5c0.1,0.2,0.2,0.5,0.3,0.8s0.1,0.7,0.1,1.1v3.8H60.8z"/>
		<path class="st1" d="M65.3,52.5c-0.4,0-0.9-0.1-1.2-0.3c-0.4-0.2-0.7-0.4-1-0.7s-0.5-0.6-0.7-1s-0.2-0.8-0.2-1.3
			c0-0.6,0.1-1.1,0.4-1.6c0.3-0.5,0.6-0.9,1.1-1.2s1-0.4,1.6-0.4s1.2,0.1,1.6,0.4s0.8,0.7,1.1,1.2s0.4,1,0.4,1.6c0,0.1,0,0.1,0,0.2
			s0,0.1,0,0.1H63c0,0.4,0.2,0.8,0.4,1.2c0.2,0.3,0.5,0.6,0.8,0.8s0.7,0.3,1.1,0.3s0.8-0.1,1.2-0.3s0.6-0.5,0.8-0.8l0.7,0.2
			c-0.1,0.3-0.3,0.6-0.6,0.8c-0.3,0.2-0.6,0.4-0.9,0.6C66.1,52.4,65.7,52.5,65.3,52.5z M63,49h4.6c0-0.5-0.2-0.8-0.4-1.2
			c-0.2-0.3-0.5-0.6-0.8-0.8s-0.7-0.3-1.1-0.3s-0.8,0.1-1.1,0.3c-0.3,0.2-0.6,0.5-0.8,0.8C63.1,48.1,63,48.5,63,49z"/>
		<path class="st1" d="M71.7,52.5c-0.5,0-1-0.1-1.4-0.3s-0.8-0.4-1.1-0.8l0.3-0.6c0.4,0.3,0.7,0.6,1.1,0.7c0.4,0.1,0.7,0.2,1.1,0.2
			c0.5,0,0.9-0.1,1.2-0.3c0.3-0.2,0.5-0.5,0.5-0.8c0-0.2-0.1-0.4-0.2-0.6c-0.1-0.1-0.4-0.2-0.6-0.3c-0.3-0.1-0.6-0.2-1-0.3
			s-0.8-0.2-1.1-0.4s-0.5-0.3-0.7-0.5c-0.1-0.2-0.2-0.5-0.2-0.8c0-0.4,0.1-0.7,0.3-1s0.5-0.5,0.8-0.6c0.4-0.1,0.8-0.2,1.2-0.2
			c0.5,0,0.9,0.1,1.3,0.2c0.4,0.2,0.7,0.4,0.9,0.6l-0.4,0.6c-0.2-0.3-0.5-0.4-0.8-0.6c-0.3-0.1-0.6-0.2-1-0.2c-0.3,0-0.5,0-0.7,0.1
			s-0.4,0.2-0.6,0.3c-0.1,0.2-0.2,0.4-0.2,0.6c0,0.2,0.1,0.4,0.2,0.5s0.3,0.2,0.5,0.3s0.5,0.2,0.8,0.3c0.5,0.1,0.9,0.3,1.2,0.4
			c0.4,0.1,0.6,0.3,0.8,0.5c0.2,0.2,0.3,0.5,0.3,0.9c0,0.6-0.2,1-0.7,1.4C73,52.3,72.4,52.5,71.7,52.5z"/>
	</g>
</g>
<g>
	<g>
		<path class="st1" d="M37.5,28.3c0.7,0.1,1.2,0.4,1.7,0.8s0.9,0.9,1.1,1.5c0.3,0.6,0.4,1.3,0.4,2c0,1-0.2,1.8-0.7,2.5
			s-1.2,1.3-2.1,1.7s-2,0.6-3.2,0.6s-2.2-0.2-3.1-0.6c-0.9-0.4-1.7-0.9-2.3-1.7l1.8-2.2c0.4,0.5,0.9,0.9,1.4,1.2
			c0.6,0.3,1.3,0.4,2.1,0.4c0.9,0,1.7-0.2,2.2-0.6s0.7-1,0.7-1.8s-0.3-1.5-0.9-1.9s-1.4-0.7-2.6-0.7h-0.7v-2.3H34
			c0.9,0,1.7-0.2,2.2-0.7c0.5-0.4,0.8-1,0.8-1.7c0-0.4-0.1-0.8-0.3-1.1c-0.2-0.3-0.5-0.5-0.8-0.6c-0.4-0.1-0.8-0.2-1.2-0.2
			c-0.7,0-1.4,0.2-1.9,0.5s-1,0.8-1.4,1.4l-2-2.2c0.3-0.5,0.8-0.9,1.3-1.2c0.6-0.4,1.2-0.6,2-0.8c0.7-0.2,1.5-0.3,2.3-0.3
			c1.1,0,2,0.2,2.8,0.5s1.4,0.8,1.9,1.5c0.4,0.6,0.7,1.4,0.7,2.2c0,0.6-0.1,1.2-0.4,1.7c-0.2,0.5-0.6,1-1,1.4S38.1,28.2,37.5,28.3z"
			/>
		<path class="st1" d="M52.6,31.1V34h-9.5v-2.8h3.3v-7.1c-0.1,0.2-0.3,0.4-0.6,0.6s-0.6,0.4-1,0.6s-0.7,0.3-1.1,0.4
			c-0.4,0.1-0.7,0.2-1,0.2V23c0.3,0,0.6-0.1,1-0.3c0.4-0.2,0.8-0.4,1.2-0.6c0.4-0.3,0.7-0.5,1-0.7s0.5-0.4,0.5-0.6h3.2v10.5h3V31.1z
			"/>
	</g>
</g>
</svg>
