<?xml version="1.0" encoding="utf-8"?>
<!-- Generator: Adobe Illustrator 28.3.0, SVG Export Plug-In . SVG Version: 6.00 Build 0)  -->
<svg version="1.1" id="_лой_2" xmlns="http://www.w3.org/2000/svg" xmlns:xlink="http://www.w3.org/1999/xlink" x="0px" y="0px"
	 viewBox="0 0 82.5 82.5" style="enable-background:new 0 0 82.5 82.5;" xml:space="preserve">
<style type="text/css">
	.st0{fill:#51C3B7;stroke:#FFF1D6;stroke-width:2.5;stroke-linecap:round;stroke-linejoin:round;}
	.st1{fill:none;stroke:#FFF1D6;stroke-width:2.5;stroke-linecap:round;stroke-linejoin:round;}
</style>
<g id="_лой_1-2">
	<circle class="st0" cx="41.2" cy="41.2" r="40"/>
	<g>
		<circle class="st1" cx="51" cy="18.4" r="6.2"/>
		<circle class="st1" cx="27.1" cy="31.3" r="11.5"/>
		<path class="st1" d="M27.3,23.8c-0.7,0-2.9,0.2-4.8,1.9c-2.5,2.1-2.6,5.1-2.7,5.6"/>
		<circle class="st0" cx="46.6" cy="51" r="19.3"/>
		<path class="st1" d="M43.4,37.1c-1.3,0.3-3.9,1.2-6.3,3.4c-2.7,2.5-3.6,5.3-4,6.6"/>
		<path class="st1" d="M34,56.8c0.6,1.2,1.9,3.6,4.6,5.5c3,2.1,5.9,2.5,7.2,2.6"/>
		<g>
			<line class="st1" x1="61.9" y1="23.8" x2="63.5" y2="25.5"/>
			<line class="st1" x1="61.9" y1="30.2" x2="63.5" y2="28.5"/>
			<line class="st1" x1="68.3" y1="23.8" x2="66.6" y2="25.5"/>
			<line class="st1" x1="68.3" y1="30.2" x2="66.6" y2="28.5"/>
		</g>
		<g>
			<line class="st1" x1="14.2" y1="57.3" x2="15.9" y2="59"/>
			<line class="st1" x1="14.2" y1="63.7" x2="15.9" y2="62"/>
			<line class="st1" x1="20.6" y1="57.3" x2="19" y2="59"/>
			<line class="st1" x1="20.6" y1="63.7" x2="19" y2="62"/>
		</g>
	</g>
</g>
</svg>
