<?xml version="1.0" encoding="UTF-8"?>
<svg id="Layer_1" data-name="Layer 1" xmlns="http://www.w3.org/2000/svg" version="1.1" viewBox="0 0 56.7 56.7">
  <defs>
    <style>
      .cls-1 {
        fill: #f77f00;
      }

      .cls-1, .cls-2, .cls-3, .cls-4 {
        stroke-width: 0px;
      }

      .cls-5, .cls-6 {
        stroke: #070401;
        stroke-miterlimit: 10;
        stroke-width: .8px;
      }

      .cls-5, .cls-3 {
        fill: #f4f0ea;
      }

      .cls-6 {
        fill: none;
      }

      .cls-2 {
        fill: #50c5b7;
      }

      .cls-4 {
        fill: #ff69eb;
      }
    </style>
  </defs>
  <circle class="cls-3" cx="29.2" cy="28.7" r="23.1"/>
  <path class="cls-3" d="M16,24.8h0c0,.1-.2.3-.3.5.1-.2.2-.5.4-.7l-.4.5c.7-.9,1.6-1.7,2.5-2.3l-.5.4c.7-.5,1.4-1,2.1-1.4s1-.9,1.1-1.5,0-1.4-.3-1.9-.9-1-1.5-1.1-1.3,0-1.9.3c-1.2.7-2.3,1.5-3.3,2.4s-.9.8-1.3,1.2-.6.7-.9,1.1-.5.8-.7,1.3,0,1.4.3,1.9.9,1,1.5,1.1,1.4.1,1.9-.3l.5-.4c.3-.3.5-.7.6-1.1h0Z"/>
  <path class="cls-2" d="M13.5,11.7c2.1,0,5.4.1,9.2,1.4,4.2,1.4,7.2,3.6,8.9,5.1.1-.3.7-1.2,1.8-1.7,1-.4,1.8-.3,2.1-.2.5-1.2.9-2.6,1.2-4.3.4-1.9.4-3.6.4-4.9-1.9-.7-6.6-2.2-12.4-1.1-6,1.1-9.8,4.3-11.4,5.7Z"/>
  <path class="cls-4" d="M31.5,20.5c0,.4.2,1.4.9,2.3.8,1.1,1.9,1.5,2.3,1.6-.6,3.6-1.5,7.7-2.9,12.1-2,6-4.4,11-6.6,14.9-1.9-.3-6.9-1.2-11.4-5.2-4.4-3.9-6-8.5-6.5-10.4,2.9-3,7-6.6,12.5-9.9,4.3-2.6,8.4-4.3,11.8-5.5Z"/>
  <path class="cls-1" d="M39.3,22.8c.2-.4.5-1.1.6-1.9,0-1.3-.4-2.3-.6-2.7,1-.6,2.3-1.2,3.7-1.7,1.8-.7,3.5-1.1,4.9-1.3,1.3,1.8,3.6,5.4,4.2,10.5.9,7.1-1.8,12.8-2.9,14.5-.7-2.5-2-6-3.9-9.4-2-3.5-4.3-6.2-6.1-8.1Z"/>
  <g>
    <ellipse class="cls-5" cx="35.6" cy="20.3" rx="3.9" ry="4.2" transform="translate(.2 41) rotate(-60)"/>
    <path class="cls-6" d="M31.7,20.3c-6.3,2.5-13.4,6.3-20.4,12-1.4,1.2-2.8,2.4-4,3.6"/>
    <path class="cls-6" d="M25,51.8c.7-1.1,1.3-2.3,1.9-3.5,4.4-8.5,6.7-16.8,7.9-24.2"/>
    <path class="cls-6" d="M49.1,40.3c-.4-1.5-.9-3-1.5-4.6-2.4-6-5.5-10-8.4-12.9"/>
    <path class="cls-6" d="M47.9,15.5c-1.4.1-2.9.3-4.9,1-1.6.5-2.9,1.1-4,1.7"/>
    <path class="cls-6" d="M37.3,7.5c0,1.4,0,2.9-.5,4.9-.3,1.5-.7,2.9-1.2,4"/>
    <path class="cls-6" d="M31.8,18.5c-1.7-1.7-5-4.5-10.4-6-3.1-.9-5.6-.8-7.6-.7"/>
  </g>
  <circle class="cls-6" cx="29.2" cy="29.1" r="23.1"/>
</svg>