<?xml version="1.0" encoding="utf-8"?>
<!-- Generator: Adobe Illustrator 28.3.0, SVG Export Plug-In . SVG Version: 6.00 Build 0)  -->
<svg version="1.1" id="Layer_1" xmlns="http://www.w3.org/2000/svg" xmlns:xlink="http://www.w3.org/1999/xlink" x="0px" y="0px"
	 viewBox="0 0 16 16" style="enable-background:new 0 0 16 16;" xml:space="preserve">
<style type="text/css">
	.st0{fill:#004459;}
</style>
<path class="st0" d="M7.5,0C7.3,1.6,6.9,3.7,6,6C5.4,7.5,4.8,8.7,4.1,9.8c-0.7,1.1-0.8,2.4-0.3,3.5c0.5,1.2,1.4,1.8,1.7,2
	c0.2,0.1,0.9,0.5,1.8,0.7c0.3,0,1.1,0.1,1.9-0.1c1.7-0.5,3.2-2.2,3.2-4.1c0-1.3-0.7-2.4-1.4-3.3c-1.1-1.5-2.1-3-2.7-4.8
	C8,2.8,7.6,1.6,7.5,0z"/>
</svg>
