<?xml version="1.0" encoding="utf-8"?>
<!-- Generator: Adobe Illustrator 28.3.0, SVG Export Plug-In . SVG Version: 6.00 Build 0)  -->
<svg version="1.1" id="_лой_2" xmlns="http://www.w3.org/2000/svg" xmlns:xlink="http://www.w3.org/1999/xlink" x="0px" y="0px"
	 viewBox="0 0 82.5 82.5" style="enable-background:new 0 0 82.5 82.5;" xml:space="preserve">
<style type="text/css">
	.st0{fill:#FF68EB;stroke:#FFF1D6;stroke-width:2.5;stroke-linecap:round;stroke-linejoin:round;}
	.st1{fill:none;stroke:#FFF1D6;stroke-width:2.5;stroke-linecap:round;stroke-linejoin:round;}
</style>
<g id="_лой_1-2">
	<circle class="st0" cx="41.2" cy="41.2" r="40"/>
	<g>
		<path class="st1" d="M28.2,68.6h26.1c0.6,0,1.1,0.5,1.1,1.1V72c0,0.6-0.5,1.1-1.1,1.1H28.2c-0.6,0-1.1-0.5-1.1-1.1v-2.3
			C27.1,69.1,27.6,68.6,28.2,68.6z"/>
		<path class="st1" d="M14.8,37.9h52.9c0.9,0,1.6,0.7,1.6,1.6v1.4c0,0.9-0.7,1.6-1.6,1.6H14.8c-0.9,0-1.6-0.7-1.6-1.6v-1.4
			C13.3,38.6,14,37.9,14.8,37.9z"/>
		<path class="st1" d="M50.6,59.1H31.9c-1.4,0-7.9-0.2-13.2-5.4c-4.4-4.4-5.3-9.6-5.5-11.2h55.7c-0.2,1.7-0.9,6.6-5,10.9
			C58.7,58.9,51.9,59.1,50.6,59.1z"/>
		<path class="st1" d="M33.2,59.1h16.1c0.7,0,1.3,0.6,1.3,1.3v6.9c0,0.7-0.6,1.3-1.3,1.3H33.2c-0.7,0-1.3-0.6-1.3-1.3v-6.9
			C31.9,59.7,32.5,59.1,33.2,59.1z"/>
		<path class="st1" d="M27,30.4v-3c0.8-3.4,3.8-5.7,7.2-5.7c3.3,0,6.2,2.4,7,5.6v10.6"/>
		<path class="st1" d="M34.2,15v-2.6c0.3-1.7,1.8-3,3.5-3s3.3,1.3,3.5,3v15"/>
		<path class="st1" d="M55.5,30.4v-3c-0.8-3.4-3.8-5.7-7.2-5.7c-3.3,0-6.2,2.4-7,5.6v10.6"/>
		<path class="st1" d="M48.3,15v-2.6c-0.3-1.7-1.8-3-3.5-3s-3.3,1.3-3.5,3v15"/>
	</g>
</g>
</svg>
