<?xml version="1.0" encoding="utf-8"?>
<!-- Generator: Adobe Illustrator 28.3.0, SVG Export Plug-In . SVG Version: 6.00 Build 0)  -->
<svg version="1.1" id="_лой_2" xmlns="http://www.w3.org/2000/svg" xmlns:xlink="http://www.w3.org/1999/xlink" x="0px" y="0px"
	 viewBox="0 0 82.5 82.5" style="enable-background:new 0 0 82.5 82.5;" xml:space="preserve">
<style type="text/css">
	.st0{fill:#FF69EB;stroke:#F4F0EA;stroke-width:2.5;stroke-linecap:round;stroke-linejoin:round;}
	.st1{fill:#F4F0EA;}
</style>
<circle class="st0" cx="41.2" cy="41.3" r="40"/>
<g>
	<g>
		<path class="st1" d="M15.1,53.8v-8.5h5.6V46H16v3.1h4v0.7h-4v3.9L15.1,53.8L15.1,53.8z"/>
		<path class="st1" d="M24.7,54c-0.5,0-0.9-0.1-1.3-0.3s-0.7-0.4-1-0.7s-0.5-0.6-0.6-1s-0.2-0.8-0.2-1.2s0.1-0.9,0.2-1.2
			c0.2-0.4,0.4-0.7,0.6-1c0.3-0.3,0.6-0.5,1-0.7s0.8-0.3,1.2-0.3c0.4,0,0.9,0.1,1.2,0.3s0.7,0.4,1,0.7s0.5,0.6,0.6,1
			c0.2,0.4,0.2,0.8,0.2,1.2s-0.1,0.8-0.2,1.2s-0.4,0.7-0.6,1c-0.3,0.3-0.6,0.5-1,0.7S25.1,54,24.7,54z M22.4,50.8
			c0,0.5,0.1,0.9,0.3,1.3s0.5,0.7,0.8,0.9s0.7,0.3,1.1,0.3s0.8-0.1,1.1-0.3c0.3-0.2,0.6-0.5,0.8-0.9c0.2-0.4,0.3-0.8,0.3-1.3
			s-0.1-0.9-0.3-1.3c-0.2-0.4-0.5-0.7-0.8-0.9s-0.7-0.3-1.1-0.3s-0.8,0.1-1.1,0.3c-0.3,0.2-0.6,0.5-0.8,0.9S22.4,50.3,22.4,50.8z"/>
		<path class="st1" d="M29.1,51.3v-3.7h0.8v3.5c0,0.7,0.1,1.2,0.4,1.6s0.6,0.5,1.1,0.5c0.3,0,0.6-0.1,0.9-0.2
			c0.3-0.1,0.6-0.3,0.8-0.6s0.4-0.6,0.5-0.9v-3.9h0.8v5.2c0,0.1,0,0.2,0.1,0.2s0.1,0.1,0.2,0.1v0.6c-0.1,0-0.2,0-0.2,0
			c-0.1,0-0.1,0-0.2,0c-0.2,0-0.3-0.1-0.4-0.2c-0.1-0.1-0.2-0.2-0.2-0.4v-0.8c-0.3,0.5-0.6,0.9-1.1,1.1c-0.5,0.3-1,0.4-1.5,0.4
			c-0.7,0-1.2-0.2-1.5-0.7C29.3,52.8,29.1,52.1,29.1,51.3z"/>
		<path class="st1" d="M41.5,53.8h-0.8v-3.5c0-0.7-0.1-1.3-0.3-1.6s-0.6-0.5-1-0.5c-0.3,0-0.6,0.1-0.9,0.2c-0.3,0.2-0.6,0.4-0.8,0.6
			c-0.2,0.3-0.4,0.6-0.5,0.9v3.8h-0.8v-6.2H37V49c0.2-0.3,0.4-0.6,0.7-0.8s0.6-0.4,0.9-0.5c0.3-0.1,0.7-0.2,1.1-0.2
			c0.3,0,0.6,0.1,0.9,0.2c0.2,0.1,0.4,0.3,0.6,0.5c0.1,0.2,0.2,0.5,0.3,0.8s0.1,0.7,0.1,1.1L41.5,53.8L41.5,53.8z"/>
		<path class="st1" d="M46.3,53.6c-0.1,0-0.2,0.1-0.3,0.1c-0.1,0.1-0.3,0.1-0.5,0.2c-0.2,0-0.4,0.1-0.6,0.1c-0.2,0-0.5,0-0.7-0.1
			s-0.4-0.2-0.5-0.4s-0.2-0.4-0.2-0.7v-4.5h-0.9v-0.6h0.9v-2.1h0.8v2.1h1.4v0.6h-1.4v4.3c0,0.2,0.1,0.4,0.2,0.5
			c0.1,0.1,0.3,0.2,0.5,0.2s0.4,0,0.6-0.1c0.2-0.1,0.3-0.1,0.3-0.2L46.3,53.6z"/>
		<path class="st1" d="M46.8,52c0-0.4,0.1-0.7,0.3-1s0.5-0.5,0.9-0.7s0.9-0.2,1.4-0.2c0.3,0,0.6,0,0.9,0.1c0.3,0,0.6,0.1,0.9,0.2
			v-0.5c0-0.5-0.2-0.9-0.5-1.3c-0.3-0.3-0.7-0.5-1.3-0.5c-0.3,0-0.7,0.1-1,0.2c-0.3,0.1-0.7,0.3-1,0.5l-0.3-0.6
			c0.4-0.3,0.8-0.5,1.2-0.6s0.8-0.2,1.2-0.2c0.8,0,1.4,0.2,1.8,0.7c0.4,0.4,0.7,1,0.7,1.8v2.9c0,0.1,0,0.2,0.1,0.2s0.1,0.1,0.2,0.1
			v0.6c-0.1,0-0.2,0-0.2,0c-0.1,0-0.1,0-0.1,0c-0.2,0-0.4-0.1-0.5-0.2c-0.1-0.1-0.2-0.2-0.2-0.4v-0.5c-0.3,0.4-0.6,0.6-1.1,0.8
			c-0.4,0.2-0.9,0.3-1.4,0.3c-0.4,0-0.8-0.1-1.1-0.3s-0.6-0.4-0.8-0.7S46.8,52.4,46.8,52z M51,52.5c0.1-0.1,0.2-0.2,0.2-0.3
			s0.1-0.2,0.1-0.3V51c-0.3-0.1-0.6-0.2-0.8-0.2s-0.6-0.1-0.9-0.1c-0.6,0-1.1,0.1-1.4,0.3c-0.4,0.2-0.5,0.5-0.5,0.9
			c0,0.2,0.1,0.4,0.2,0.6c0.1,0.2,0.3,0.4,0.5,0.5s0.5,0.2,0.8,0.2c0.4,0,0.8-0.1,1.1-0.2C50.5,52.9,50.8,52.8,51,52.5z"/>
		<path class="st1" d="M53.8,46.3v-1.2h0.8v1.2H53.8z M53.8,53.8v-6.3h0.8v6.3H53.8z"/>
		<path class="st1" d="M61.7,53.8h-0.8v-3.5c0-0.7-0.1-1.3-0.3-1.6s-0.6-0.5-1-0.5c-0.3,0-0.6,0.1-0.9,0.2c-0.3,0.2-0.6,0.4-0.8,0.6
			c-0.2,0.3-0.4,0.6-0.5,0.9v3.8h-0.8v-6.2h0.7V49c0.2-0.3,0.4-0.6,0.7-0.8s0.6-0.4,0.9-0.5c0.3-0.1,0.7-0.2,1.1-0.2
			c0.3,0,0.6,0.1,0.9,0.2c0.2,0.1,0.4,0.3,0.6,0.5c0.1,0.2,0.2,0.5,0.3,0.8s0.1,0.7,0.1,1.1v3.7H61.7z"/>
		<path class="st1" d="M65.5,54c-0.5,0-1-0.1-1.4-0.3s-0.8-0.4-1.1-0.8l0.3-0.6c0.4,0.3,0.7,0.6,1.1,0.7c0.4,0.1,0.7,0.2,1.1,0.2
			c0.5,0,0.9-0.1,1.2-0.3c0.3-0.2,0.5-0.5,0.5-0.8c0-0.2-0.1-0.4-0.2-0.6c-0.1-0.1-0.4-0.2-0.6-0.3c-0.3-0.1-0.6-0.2-1-0.3
			s-0.8-0.2-1.1-0.4c-0.3-0.1-0.5-0.3-0.7-0.5c-0.1-0.2-0.2-0.5-0.2-0.8c0-0.4,0.1-0.7,0.3-1s0.5-0.5,0.8-0.6
			c0.4-0.1,0.8-0.2,1.2-0.2c0.5,0,0.9,0.1,1.3,0.2c0.4,0.2,0.7,0.4,0.9,0.6l-0.4,0.6c-0.2-0.3-0.5-0.4-0.8-0.6
			c-0.3-0.1-0.6-0.2-1-0.2c-0.3,0-0.5,0-0.7,0.1s-0.4,0.2-0.6,0.3c-0.1,0.2-0.2,0.4-0.2,0.6c0,0.2,0.1,0.4,0.2,0.5s0.3,0.2,0.5,0.3
			s0.5,0.2,0.8,0.3c0.5,0.1,0.9,0.3,1.2,0.4c0.4,0.1,0.6,0.3,0.8,0.5c0.2,0.2,0.3,0.5,0.3,0.9c0,0.6-0.2,1-0.7,1.4
			C66.8,53.8,66.2,54,65.5,54z"/>
	</g>
</g>
<g>
	<g>
		<path class="st1" d="M40.4,29.1c0,1-0.3,1.9-0.8,2.7s-1.3,1.4-2.2,1.8s-1.9,0.6-3,0.6s-2.1-0.2-3-0.7s-1.6-1.1-2.2-1.8
			c-0.5-0.8-0.8-1.7-0.8-2.7c0-0.6,0.1-1.2,0.4-1.7s0.6-0.9,1-1.3s0.8-0.6,1.2-0.8c-0.4-0.2-0.7-0.5-1.1-0.8s-0.6-0.7-0.8-1.1
			c-0.2-0.4-0.3-0.8-0.3-1.3c0-0.7,0.2-1.4,0.5-2s0.8-1,1.3-1.4s1.1-0.7,1.8-0.9c0.6-0.2,1.3-0.3,1.9-0.3c0.6,0,1.3,0.1,1.9,0.3
			c0.7,0.2,1.2,0.5,1.8,0.9c0.5,0.4,1,0.9,1.3,1.4s0.5,1.2,0.5,2c0,0.4-0.1,0.9-0.3,1.3s-0.4,0.8-0.8,1.1S38,25,37.6,25.2
			c0.4,0.2,0.9,0.5,1.3,0.9c0.4,0.4,0.7,0.8,1,1.3C40.3,27.9,40.4,28.5,40.4,29.1z M37.3,28.9c0-0.4-0.1-0.8-0.2-1.1
			c-0.2-0.3-0.4-0.6-0.7-0.8c-0.3-0.2-0.6-0.4-0.9-0.5c-0.3-0.1-0.7-0.2-1-0.2c-0.5,0-0.9,0.1-1.4,0.3c-0.4,0.2-0.8,0.5-1,0.9
			c-0.3,0.4-0.4,0.8-0.4,1.3c0,0.4,0.1,0.7,0.2,1c0.2,0.3,0.4,0.6,0.6,0.8c0.3,0.2,0.6,0.4,0.9,0.5s0.7,0.2,1,0.2
			c0.5,0,1-0.1,1.4-0.3c0.4-0.2,0.8-0.5,1-0.9C37.2,29.8,37.3,29.4,37.3,28.9z M32.1,22.1c0,0.4,0.1,0.8,0.3,1.1
			c0.2,0.3,0.5,0.5,0.9,0.7c0.4,0.1,0.7,0.2,1.1,0.2s0.7-0.1,1.1-0.2c0.4-0.2,0.7-0.4,0.9-0.7c0.2-0.3,0.4-0.6,0.4-1.1
			c0-0.4-0.1-0.7-0.3-1s-0.5-0.5-0.8-0.7s-0.7-0.2-1.2-0.2c-0.4,0-0.8,0.1-1.1,0.2c-0.4,0.2-0.6,0.4-0.8,0.7
			C32.2,21.4,32.1,21.8,32.1,22.1z"/>
		<path class="st1" d="M47.5,37.4c-1.2,0-2.2-0.3-3.2-0.8s-1.7-1.2-2.2-2.1l1.8-1.9c0.4,0.6,1,1.1,1.6,1.5s1.3,0.5,2,0.5
			c0.6,0,1.1-0.1,1.5-0.3s0.8-0.6,1-1s0.4-0.9,0.4-1.4c0-0.5-0.1-1-0.3-1.4s-0.6-0.7-1-0.9c-0.4-0.2-0.9-0.3-1.4-0.3s-1,0.1-1.4,0.3
			s-0.8,0.6-1.1,1h-2.7l1.9-9.8h8.2v2.8h-5.9L46,27.3c0.2-0.2,0.4-0.3,0.8-0.5c0.4-0.1,0.8-0.2,1.3-0.2c1.1,0,2,0.2,2.8,0.7
			s1.5,1.1,1.9,1.9s0.7,1.7,0.7,2.8c0,1.1-0.3,2.1-0.8,2.9s-1.2,1.5-2.2,2S48.7,37.4,47.5,37.4z"/>
	</g>
</g>
</svg>
