<?xml version="1.0" encoding="UTF-8"?>
<svg id="_лой_2" data-name=" лой 2" xmlns="http://www.w3.org/2000/svg" version="1.1" viewBox="0 0 200 200">
  <defs>
    <style>
      .cls-1 {
        fill: #f4f0ea;
        stroke-width: 0px;
      }
    </style>
  </defs>
  <path class="cls-1" d="M68.5,173.4c1.3,1.3,3.4.4,7,.3,3.7-.1,5,.9,11.2,2.9,4.6,1.4,10.2,3.2,15.9,3.6,3.3.2,8.2.1,14.3-1.7.2-.1.6-.5.9-1.2.3-.8,0-1.5,0-1.7,0-1.3,0-3.1-.8-5.1-1.1-2.6-2.9-4.1-3.4-4.5-4.8-4.2-6.4-21.3-3.2-38.1,2-10.5,7.5-18.1,17.8-21.7,7.3-2.6,14.8-4.8,21.9-7.6,11.9-4.8,22.5-11.5,29.3-22.9,4.6-7.6,6.4-15.8,4.3-24.5-.7-3.2-2.5-5.5-5.9-6-3.2-.5-5.9.7-7.2,3.6-2.1,4.7-6.4,5.6-11.1,4.7-2-.4-4.8-.3-6.2.8-5.3,4.4-11.3,4.4-17.3,3.1-9.5-2-18.7-1.8-27.6,2.2-.8.4-2.4.2-3.1-.3-7.5-6.1-16.1-9-25.7-9.5-6.4-.4-12.4-2-16.5-7.8-1-1.4-3.6-2.1-5.5-2.3-6.3-.7-7.6-1.6-9.6-7.7-1.1-3.2-3.3-5.1-6.5-5.3-3-.2-5.2,1.5-6.7,4.1-4.6,8-4.8,16.5-2.4,25.1,3,11.2,10.2,20.1,19.3,27.3,6.3,5,13.1,9.5,19.9,13.9,11.7,7.5,15.5,18.3,13.3,31.5s-2.1,31.2-15.2,36.2c-.3.1-.5.2-.6.2-1.3,3-2.3,6.8-.6,8.4h0Z"/>
  <path class="cls-1" d="M176.3,52.9c-4.2,6.9-10.1,8.8-17.4,7.5-1-.2-2.3,0-3.1.6-5.9,3.9-12.4,4.5-19.1,3.5-3.2-.5-6.3-1.2-9.5-1.5-8-.7-15.3,1.6-21.7,6.2-2.3-2.1-4.3-4.2-6.5-6-6.3-5.1-13.9-6.3-21.8-6.9-7.2-.5-13.8-3-18.7-8.8-.5-.6-1.4-1.1-2.2-1.1-7.7-.6-13.1-4.2-15.4-12.5-.8,1.7-1.6,2.9-2,4.2-1.9,6.2-1.3,12.3.9,18.2,4.5,11.8,13.4,19.9,23.4,26.9,5.4,3.7,10.9,7.2,16.1,11.1,7.2,5.4,11.5,12.7,12.7,21.8,1.4,10.8-1.2,20.9-5.3,30.7-2.8,6.7-6.2,13.1-9.4,19.8,10.2,1.6,19.4,8.1,30.4,6.4,0-.5,0-.8,0-1.1-.2-.9-.4-1.7-.7-2.6-3.2-11.4-5.1-22.9-4.7-34.7.6-18.7,8.8-30,26.5-36.4,9.5-3.4,19.2-6.7,28.3-11.3,9.7-4.8,16.9-12.6,19.5-23.6,1-3.2,1.6-6.6-.3-10.4h0Z"/>
</svg>