<?xml version="1.0" encoding="utf-8"?>
<!-- Generator: Adobe Illustrator 28.3.0, SVG Export Plug-In . SVG Version: 6.00 Build 0)  -->
<svg version="1.1" id="_лой_2" xmlns="http://www.w3.org/2000/svg" xmlns:xlink="http://www.w3.org/1999/xlink" x="0px" y="0px"
	 viewBox="0 0 82.5 82.5" style="enable-background:new 0 0 82.5 82.5;" xml:space="preserve">
<style type="text/css">
	.st0{fill:#00A6FB;stroke:#FFF1D6;stroke-width:2.5;stroke-linecap:round;stroke-linejoin:round;}
	.st1{fill:none;stroke:#FFF1D6;stroke-width:2.5;stroke-linecap:round;stroke-linejoin:round;}
</style>
<circle class="st0" cx="41.2" cy="41.2" r="40"/>
<path class="st1" d="M36.6,61.5c1.3-12.8,2.6-25.6,3.9-38.4c9.3,2.6,18.7,5.3,28,7.9c-5.1,11.9-10.1,23.7-15.2,35.6
	C47.8,65,42.2,63.2,36.6,61.5z"/>
<path class="st1" d="M39.5,33.1c1.9-0.9,4.9-2,8.3-1.4c4.8,0.8,6.4,4.2,10.4,4.6c2.2,0.2,5.7-0.4,10.4-5.3"/>
<path class="st1" d="M21.3,18.2c0.2,4.7-0.3,8.4-0.8,11c-0.7,3.5-1.6,6-0.3,8.6c0.2,0.3,1.2,2.3,3.6,3.2c2.9,1,6.2-0.2,7.9-2.6
	c0.2-0.3,1.4-2.1,1.2-4.4c-0.3-2.9-2.5-4.5-5.2-7.3C25.9,24.7,23.6,22,21.3,18.2z"/>
</svg>
