<?xml version="1.0" encoding="utf-8"?>
<!-- Generator: Adobe Illustrator 28.3.0, SVG Export Plug-In . SVG Version: 6.00 Build 0)  -->
<svg version="1.1" id="_лой_2" xmlns="http://www.w3.org/2000/svg" xmlns:xlink="http://www.w3.org/1999/xlink" x="0px" y="0px"
	 viewBox="0 0 82.5 82.5" style="enable-background:new 0 0 82.5 82.5;" xml:space="preserve">
<style type="text/css">
	.st0{fill:#00A6FB;stroke:#F4F0EA;stroke-width:2.5;stroke-linecap:round;stroke-linejoin:round;}
	.st1{fill:#F4F0EA;}
</style>
<circle class="st0" cx="41.2" cy="41.2" r="40"/>
<g>
	<g>
		<path class="st1" d="M19.4,51.6v-8.5h2.9c0.9,0,1.7,0.2,2.3,0.6c0.6,0.4,1.1,0.9,1.4,1.5c0.3,0.6,0.5,1.4,0.5,2.1
			c0,0.9-0.2,1.6-0.5,2.3c-0.3,0.6-0.8,1.1-1.4,1.5c-0.6,0.4-1.3,0.5-2.2,0.5H19.4z M25.6,47.4c0-0.7-0.1-1.3-0.4-1.8
			c-0.3-0.5-0.6-0.9-1.1-1.2s-1.1-0.5-1.8-0.5h-2.1v7h2.1c0.7,0,1.3-0.2,1.8-0.5c0.5-0.3,0.8-0.7,1.1-1.3
			C25.4,48.6,25.6,48,25.6,47.4z"/>
		<path class="st1" d="M31,46.1c-0.5,0-1,0.2-1.4,0.5s-0.7,0.7-0.9,1.2v3.9h-0.8v-6.2h0.8v1.5c0.2-0.4,0.5-0.8,0.9-1.1
			c0.4-0.3,0.7-0.4,1.1-0.5c0.1,0,0.1,0,0.2,0s0.1,0,0.1,0V46.1z"/>
		<path class="st1" d="M32,44.1v-1.2h0.8v1.2H32z M32,51.6v-6.3h0.8v6.3H32z"/>
		<path class="st1" d="M39.9,51.6h-0.8v-3.5c0-0.7-0.1-1.3-0.3-1.6c-0.2-0.3-0.6-0.5-1-0.5c-0.3,0-0.6,0.1-0.9,0.2
			c-0.3,0.2-0.6,0.4-0.8,0.6c-0.2,0.3-0.4,0.6-0.5,0.9v3.8h-0.8v-6.2h0.7v1.4c0.2-0.3,0.4-0.6,0.7-0.8c0.3-0.2,0.6-0.4,0.9-0.5
			c0.3-0.1,0.7-0.2,1.1-0.2c0.3,0,0.6,0.1,0.9,0.2c0.2,0.1,0.4,0.3,0.6,0.5c0.1,0.2,0.2,0.5,0.3,0.8s0.1,0.7,0.1,1.1V51.6z"/>
		<path class="st1" d="M46.1,51.6l-2.3-3.2l-1.3,1.2v2h-0.8v-8.8h0.8v5.9l3.5-3.4h0.9L44.4,48l2.7,3.7H46.1z"/>
		<path class="st1" d="M48,44.1v-1.2h0.8v1.2H48z M48,51.6v-6.3h0.8v6.3H48z"/>
		<path class="st1" d="M55.9,51.6h-0.8v-3.5c0-0.7-0.1-1.3-0.3-1.6c-0.2-0.3-0.6-0.5-1-0.5c-0.3,0-0.6,0.1-0.9,0.2
			c-0.3,0.2-0.6,0.4-0.8,0.6c-0.2,0.3-0.4,0.6-0.5,0.9v3.8h-0.8v-6.2h0.7v1.4c0.2-0.3,0.4-0.6,0.7-0.8c0.3-0.2,0.6-0.4,0.9-0.5
			c0.3-0.1,0.7-0.2,1.1-0.2c0.3,0,0.6,0.1,0.9,0.2c0.2,0.1,0.4,0.3,0.6,0.5c0.1,0.2,0.2,0.5,0.3,0.8c0.1,0.3,0.1,0.7,0.1,1.1V51.6z"
			/>
		<path class="st1" d="M60.1,51.8c-0.4,0-0.8-0.1-1.2-0.3c-0.4-0.2-0.7-0.4-0.9-0.7s-0.5-0.6-0.6-1c-0.1-0.4-0.2-0.8-0.2-1.2
			c0-0.4,0.1-0.9,0.2-1.2c0.1-0.4,0.3-0.7,0.6-1c0.3-0.3,0.6-0.5,0.9-0.7c0.4-0.2,0.7-0.3,1.2-0.3c0.5,0,1,0.1,1.4,0.4
			c0.4,0.3,0.7,0.6,1,1v-1.3h0.7v6.3c0,0.6-0.1,1.1-0.4,1.5c-0.3,0.4-0.6,0.7-1.1,0.9c-0.5,0.2-1,0.3-1.5,0.3
			c-0.7,0-1.3-0.1-1.7-0.4c-0.4-0.3-0.8-0.6-1.1-1l0.5-0.4c0.2,0.4,0.6,0.7,1,0.9c0.4,0.2,0.9,0.3,1.3,0.3c0.4,0,0.8-0.1,1.1-0.2
			c0.3-0.1,0.6-0.4,0.8-0.7c0.2-0.3,0.3-0.7,0.3-1.1v-1.2c-0.2,0.4-0.6,0.7-1,0.9C61,51.6,60.6,51.8,60.1,51.8z M60.4,51.1
			c0.2,0,0.5,0,0.7-0.1c0.2-0.1,0.4-0.2,0.6-0.4c0.2-0.1,0.4-0.3,0.5-0.5c0.1-0.2,0.2-0.4,0.2-0.6v-1.9c-0.1-0.3-0.3-0.6-0.5-0.8
			c-0.2-0.2-0.5-0.4-0.8-0.6S60.6,46,60.3,46c-0.4,0-0.7,0.1-0.9,0.2c-0.3,0.1-0.5,0.3-0.7,0.6c-0.2,0.2-0.3,0.5-0.4,0.8
			C58.1,48,58,48.3,58,48.6c0,0.3,0.1,0.7,0.2,1s0.3,0.6,0.5,0.8c0.2,0.2,0.5,0.4,0.7,0.5C59.7,51,60,51.1,60.4,51.1z"/>
		<path class="st1" d="M28.7,66v-8.5h3.5c0.4,0,0.7,0.1,1,0.2s0.6,0.4,0.8,0.6c0.2,0.3,0.4,0.5,0.5,0.9c0.1,0.3,0.2,0.6,0.2,1
			c0,0.5-0.1,0.9-0.3,1.3c-0.2,0.4-0.5,0.7-0.9,1c-0.4,0.3-0.8,0.4-1.3,0.4h-2.8V66H28.7z M29.6,62.2h2.7c0.3,0,0.6-0.1,0.9-0.3
			c0.2-0.2,0.4-0.4,0.6-0.7c0.1-0.3,0.2-0.6,0.2-1c0-0.4-0.1-0.7-0.2-1c-0.2-0.3-0.4-0.5-0.6-0.7c-0.3-0.2-0.5-0.3-0.9-0.3h-2.7
			V62.2z"/>
		<path class="st1" d="M38.7,66.2c-0.5,0-0.9-0.1-1.3-0.3s-0.7-0.4-1-0.7c-0.3-0.3-0.5-0.6-0.6-1s-0.2-0.8-0.2-1.2
			c0-0.4,0.1-0.9,0.2-1.2s0.4-0.7,0.6-1c0.3-0.3,0.6-0.5,1-0.7s0.8-0.3,1.2-0.3c0.4,0,0.9,0.1,1.2,0.3s0.7,0.4,1,0.7
			c0.3,0.3,0.5,0.6,0.6,1s0.2,0.8,0.2,1.2c0,0.4-0.1,0.8-0.2,1.2s-0.4,0.7-0.6,1c-0.3,0.3-0.6,0.5-1,0.7S39.2,66.2,38.7,66.2z
			 M36.4,63c0,0.5,0.1,0.9,0.3,1.3s0.5,0.7,0.8,0.9c0.3,0.2,0.7,0.3,1.1,0.3s0.8-0.1,1.1-0.3c0.3-0.2,0.6-0.5,0.8-0.9
			c0.2-0.4,0.3-0.8,0.3-1.3c0-0.5-0.1-0.9-0.3-1.3c-0.2-0.4-0.5-0.7-0.8-0.9c-0.3-0.2-0.7-0.3-1.1-0.3s-0.8,0.1-1.1,0.3
			c-0.3,0.2-0.6,0.5-0.8,0.9C36.5,62.1,36.4,62.5,36.4,63z"/>
		<path class="st1" d="M45.2,66.2c-0.5,0-1-0.1-1.4-0.3c-0.4-0.2-0.8-0.4-1.1-0.8l0.3-0.6c0.4,0.3,0.7,0.6,1.1,0.7
			c0.4,0.1,0.7,0.2,1.1,0.2c0.5,0,0.9-0.1,1.2-0.3c0.3-0.2,0.5-0.5,0.5-0.8c0-0.2-0.1-0.4-0.2-0.6c-0.1-0.1-0.4-0.2-0.6-0.3
			c-0.3-0.1-0.6-0.2-1-0.3c-0.4-0.1-0.8-0.2-1.1-0.4c-0.3-0.1-0.5-0.3-0.7-0.5c-0.1-0.2-0.2-0.5-0.2-0.8c0-0.4,0.1-0.7,0.3-1
			c0.2-0.3,0.5-0.5,0.8-0.6c0.4-0.1,0.8-0.2,1.2-0.2c0.5,0,0.9,0.1,1.3,0.2c0.4,0.2,0.7,0.4,0.9,0.6l-0.4,0.6
			c-0.2-0.3-0.5-0.4-0.8-0.6c-0.3-0.1-0.6-0.2-1-0.2c-0.3,0-0.5,0-0.7,0.1c-0.2,0.1-0.4,0.2-0.6,0.3c-0.1,0.2-0.2,0.4-0.2,0.6
			c0,0.2,0.1,0.4,0.2,0.5c0.1,0.1,0.3,0.2,0.5,0.3c0.2,0.1,0.5,0.2,0.8,0.3c0.5,0.1,0.9,0.3,1.2,0.4c0.4,0.1,0.6,0.3,0.8,0.5
			c0.2,0.2,0.3,0.5,0.3,0.9c0,0.6-0.2,1-0.7,1.4C46.5,66,45.9,66.2,45.2,66.2z"/>
		<path class="st1" d="M52,65.8c-0.1,0-0.2,0.1-0.3,0.1c-0.1,0.1-0.3,0.1-0.5,0.2c-0.2,0-0.4,0.1-0.6,0.1c-0.2,0-0.5,0-0.7-0.1
			c-0.2-0.1-0.4-0.2-0.5-0.4s-0.2-0.4-0.2-0.7v-4.5h-0.9v-0.6h0.9v-2.1h0.8v2.1h1.4v0.6h-1.4v4.3c0,0.2,0.1,0.4,0.2,0.5
			c0.1,0.1,0.3,0.2,0.5,0.2c0.2,0,0.4,0,0.6-0.1c0.2-0.1,0.3-0.1,0.3-0.2L52,65.8z"/>
		<path class="st1" d="M55,66.2c-0.5,0-1-0.1-1.4-0.3c-0.4-0.2-0.8-0.4-1.1-0.8l0.3-0.6c0.4,0.3,0.7,0.6,1.1,0.7
			c0.4,0.1,0.7,0.2,1.1,0.2c0.5,0,0.9-0.1,1.2-0.3c0.3-0.2,0.5-0.5,0.5-0.8c0-0.2-0.1-0.4-0.2-0.6c-0.1-0.1-0.4-0.2-0.6-0.3
			c-0.3-0.1-0.6-0.2-1-0.3c-0.4-0.1-0.8-0.2-1.1-0.4c-0.3-0.1-0.5-0.3-0.7-0.5c-0.1-0.2-0.2-0.5-0.2-0.8c0-0.4,0.1-0.7,0.3-1
			c0.2-0.3,0.5-0.5,0.8-0.6c0.4-0.1,0.8-0.2,1.2-0.2c0.5,0,0.9,0.1,1.3,0.2c0.4,0.2,0.7,0.4,0.9,0.6L57,61.1
			c-0.2-0.3-0.5-0.4-0.8-0.6c-0.3-0.1-0.6-0.2-1-0.2c-0.3,0-0.5,0-0.7,0.1c-0.2,0.1-0.4,0.2-0.6,0.3c-0.1,0.2-0.2,0.4-0.2,0.6
			c0,0.2,0.1,0.4,0.2,0.5c0.1,0.1,0.3,0.2,0.5,0.3c0.2,0.1,0.5,0.2,0.8,0.3c0.5,0.1,0.9,0.3,1.2,0.4c0.4,0.1,0.6,0.3,0.8,0.5
			c0.2,0.2,0.3,0.5,0.3,0.9c0,0.6-0.2,1-0.7,1.4C56.3,66,55.8,66.2,55,66.2z"/>
	</g>
</g>
<g>
	<g>
		<path class="st1" d="M35.9,31.9v2.8h-9.5v-2.8h3.3v-7.1c-0.1,0.2-0.3,0.4-0.6,0.6c-0.3,0.2-0.6,0.4-1,0.6
			c-0.4,0.2-0.7,0.3-1.1,0.4c-0.4,0.1-0.7,0.2-1,0.2v-2.9c0.3,0,0.6-0.1,1-0.3c0.4-0.2,0.8-0.4,1.2-0.6c0.4-0.3,0.7-0.5,1-0.7
			c0.3-0.2,0.5-0.4,0.5-0.6h3.2v10.5H35.9z"/>
		<path class="st1" d="M47.4,31.9v2.8h-9.5v-2.8h3.3v-7.1c-0.1,0.2-0.3,0.4-0.6,0.6c-0.3,0.2-0.6,0.4-1,0.6
			c-0.4,0.2-0.7,0.3-1.1,0.4c-0.4,0.1-0.7,0.2-1,0.2v-2.9c0.3,0,0.6-0.1,1-0.3c0.4-0.2,0.8-0.4,1.2-0.6c0.4-0.3,0.7-0.5,1-0.7
			c0.3-0.2,0.5-0.4,0.5-0.6h3.2v10.5H47.4z"/>
		<path class="st1" d="M56.1,24.2h-7.5v-2.8H61l-8.2,16.2h-3.5L56.1,24.2z"/>
	</g>
</g>
</svg>
