<?xml version="1.0" encoding="utf-8"?>
<!-- Generator: Adobe Illustrator 28.3.0, SVG Export Plug-In . SVG Version: 6.00 Build 0)  -->
<svg version="1.1" id="_лой_2" xmlns="http://www.w3.org/2000/svg" xmlns:xlink="http://www.w3.org/1999/xlink" x="0px" y="0px"
	 viewBox="0 0 200 200" style="enable-background:new 0 0 200 200;" xml:space="preserve">
<style type="text/css">
	.st0{fill:#F4F0EA;}
</style>
<g id="_лой_1-2">
	<path class="st0" d="M88.2,95.4L88.2,95.4L88.2,95.4l0-0.1C88.2,95.3,88.2,95.4,88.2,95.4z"/>
	<path class="st0" d="M100,0C44.8,0,0,44.8,0,100s44.8,100,100,100s100-44.8,100-100S155.2,0,100,0z M172.4,134.9
		c-1.3,0.9-2.6,0.6-3.4-0.5c-0.8-1.1-0.7-2.5,0.5-3.3c4.1-2.9,4.9-7.1,4.6-12c-0.6,0.5-0.9,0.9-1.3,1.2c-4.3,4.2-9.2,5.8-15,4
		c-2.5-0.8-4.9-0.8-7.2,0.7c-1.6,1-3.1,0.4-3.7-1.5c-1-2.9-3.1-4.5-5.9-4.9c-6.6-1-10-5.3-11.7-11.3c0-0.3-0.2-0.6-0.2-0.9
		c0-0.3-0.1-0.6-0.3-1.4c-1.9,3.4-2.8,6.7-2.2,10.2c0.8,4.6,3.8,7.8,7.2,10.7c1.7,1.5,3.5,2.9,5,4.6c2.5,3,3.6,6.6,3.9,10.5
		c0,1.1,0.1,2.1,1.4,2.4c1.2,0.3,1.7-0.7,2.2-1.5c2.9-4.1,6.7-6.8,11.7-7.5c1.8-0.3,2.8,0.3,3.1,1.8c0.3,1.5-0.5,2.4-2.2,3
		c-1.5,0.5-3.1,0.9-4.5,1.7c-2.1,1.1-3.4,2.8-3.9,5.4c-2,9.8-5.8,18.8-13,26.1c-6,6.1-13.2,9.9-21.8,10.9c-0.3,0-0.6,0.2-0.9,0.3
		h-6.5c-3.2-0.7-6.4-1.2-9.4-2.2c-14.7-5.1-23.2-15.8-26.9-30.6c-2.6-10.5-1.9-21,1.5-31.2c0.4-1.1,0.7-2.2,1.3-3.2
		c1.3-2.3,2.2-4.4,1.7-7.3c-0.7-3.8,2.5-6.7,6.4-6.7h1.4c-0.5-2.9-1-5.7-1.5-8.4c0-0.3-0.3-0.6-0.5-0.8c-1.3-1.8-2.7-3.7-4.1-5.7
		c-3.7,0.6-7.8,1.3-11.9,1.8c-7.3,0.9-14.6,0.7-21.9,0c-2.5-0.3-4-2-4.2-4.4c-0.1-2.7,1.2-4.5,3.8-5.1c6.3-1.4,12.7-2.8,19-4.2
		c0.8-0.2,1.5-0.5,2.8-0.9c-2.9-0.6-5.3-1-7.7-1.6c-5.9-1.2-11.9-2.6-18-2.2c-6.9,0.5-11.2,4-13,10.7c-0.2,0.9-0.9,2-1.7,2.5
		c-1.3,0.8-2.8-0.1-3.2-1.7C18.3,69,24.3,56.5,37.8,52.2c3-1,6.2-1.5,9.4-1.6c7.5-0.3,13-3.6,16.7-10.1c1-1.7,1.8-3.6,2.7-5.3
		c0.8-1.6,2-2.2,3.4-1.6c1.4,0.6,1.8,1.9,1.1,3.6c-2.2,5-4.9,9.8-9.3,13.4c-4,3.2-8.5,4.6-13.5,4.9c-4.8,0.3-9.5,1-13.7,3.5
		c-4.6,2.7-7.2,6.7-8.3,11.9v1c0,0.3,0,0.3,0.2,0.6c3.9-4.3,8.8-6.3,14.3-6.4c3.4,0,6.8,0.2,10.2,0.7c6.6,1,13.2,2.3,19.8,3.6
		c2.9,0.5,5.6,0.2,8.2-1.6s4.7-3,7-4.4c-1.4-1.9-3-3.5-4-5.5c-1.1-1.9-1.9-4-2.4-6.1c-0.7-2.8,0.3-3.6,3.1-4.1
		c2.9-0.5,5.8-1.2,8.6-2.3c3.8-1.5,6.6-4.3,8.4-8c1.5-3,3.8-4.2,6.5-3.6c3,0.7,4.6,2.9,4.6,6.2v9.3c0,4.2-1.7,7.8-4.4,10.9
		c-0.7,0.8-1.4,1.6-2.1,2.5l0.2,0.5c0.6-0.1,1.2-0.2,1.6-0.5c11-6.7,13.9-20.9,6.7-31.7c-7.2-10.6-22.2-13.3-32.8-5.9
		c-0.4,0.2-0.7,0.5-1.1,0.8c-1.4,0.9-2.8,0.8-3.6-0.4S74.7,24,76,23c3.4-2.6,7.1-4.4,11.2-5.2c0.9-0.2,1.9-0.4,2.8-0.6h6.2l-0.1-0.5
		c2,0.5,4,0.8,6,1.5c10.3,3.6,17.1,10.6,19,21.5c1.9,11-2.1,19.9-10.9,26.6c-0.2,0.2-0.4,0.3-0.8,0.7c1.7,0.9,3.2,1.8,4.8,2.7
		c9.6,4.9,19.9,7.5,30.4,9.5c0.7,0.1,1.4,0.2,2.1,0.4c2.4,0.5,3.7,2.2,3.6,4.5c-0.1,2.3-1.6,4.1-4,4.1c-7.6,0.2-15.3,0.4-22.9,0.2
		c-4,0-8.1-0.9-12-1.4c-2.9,4.5-5.2,9.4-5,15.1c1,0.3,2.1,0.4,3.1,0.9c2.9,1.3,4.2,4.7,3.2,8.2c-0.2,0.6-0.2,1.4,0.1,1.9
		c5.2,7.5,6.8,15.9,6.5,24.7c-0.2,4.6-0.9,9.1-1.4,13.7v0.7c3,1.2,5.9,1.2,8.8,0c5-2.2,8.1-6.3,10.9-10.8c0.2-0.3,0.2-0.8,0.1-1.2
		c-0.5-3.9-2.3-7-5.4-9.5c-2.1-1.6-4.1-3.4-5.9-5.3c-5.1-5.8-6.4-12.5-3.4-19.7c1.5-3.5,3.9-6.6,5.9-9.8c0.7-1.1,1.8-1.4,3-0.8
		c1.1,0.5,1.4,1.4,1.5,2.7c0.2,3.1,0.2,6.3,0.9,9.3c0.9,3.7,3.3,6.1,7.3,6.7c3.4,0.5,6.3,2.1,8.4,5c0.3,0.3,1,0.7,1.4,0.5
		c2.4-0.6,4.9-0.5,7.2,0.2c4.9,1.6,8.7,0,11.8-3.8c1.1-1.3,1.8-3,2.8-4.3c0.6-0.7,1.7-1.3,2.5-1.3c0.7,0,1.8,1,2,1.7
		c1.3,4.8,1.9,9.7,0.6,14.6C177.4,130,175.4,132.8,172.4,134.9z"/>
</g>
</svg>
