<?xml version="1.0" encoding="UTF-8"?>
<svg id="_лой_2" data-name=" лой 2" xmlns="http://www.w3.org/2000/svg" version="1.1" viewBox="0 0 200 200">
  <defs>
    <style>
      .cls-1 {
        fill: #0057a3;
      }

      .cls-1, .cls-2 {
        stroke-width: 0px;
      }

      .cls-2 {
        fill: #f4f0ea;
      }
    </style>
  </defs>
  <g id="_лой_1-2" data-name=" лой 1-2">
    <circle class="cls-2" cx="100" cy="100" r="100"/>
    <g>
      <path class="cls-1" d="M73,166.8c1.1,1.1,3,.4,6.1.3,3.2-.1,4.3.8,9.7,2.5,4,1.2,8.8,2.7,13.8,3.1,2.9.2,7.1.1,12.4-1.4.2-.1.6-.4.8-1,.3-.7,0-1.3,0-1.5,0-1.1,0-2.7-.7-4.4-.9-2.2-2.5-3.5-2.9-3.9-4.2-3.7-5.6-18.5-2.8-33,1.7-9.1,6.5-15.7,15.4-18.8,6.3-2.2,12.8-4.1,19-6.6,10.3-4.2,19.5-10,25.4-19.8,3.9-6.6,5.5-13.7,3.7-21.3-.6-2.7-2.2-4.7-5.1-5.2-2.8-.4-5.1.6-6.2,3.1-1.8,4-5.6,4.9-9.6,4-1.7-.4-4.2-.3-5.4.7-4.6,3.8-9.8,3.8-15,2.7-8.2-1.8-16.2-1.6-23.9,1.9-.7.3-2.1.2-2.7-.3-6.5-5.3-13.9-7.8-22.2-8.3-5.6-.3-10.7-1.7-14.3-6.7-.9-1.2-3.1-1.8-4.8-2-5.5-.6-6.6-1.4-8.3-6.6-.9-2.7-2.8-4.4-5.7-4.6-2.6,0-4.5,1.3-5.8,3.6-4,7-4.2,14.3-2,21.7,2.8,9.9,9,17.6,16.9,23.8,5.5,4.3,11.3,8.2,17.2,12.1,10.1,6.5,13.4,15.8,11.5,27.3-.9,5.7-1.8,27.1-13.2,31.3-.2.1-.4.1-.6.2-1.2,2.5-2.1,5.8-.7,7.1h0Z"/>
      <path class="cls-1" d="M166.4,62.5c-3.7,5.9-8.8,7.6-15.1,6.5-.8-.2-2,0-2.7.5-5.1,3.4-10.7,3.9-16.6,3-2.8-.4-5.5-1-8.2-1.3-6.9-.6-13.2,1.3-18.8,5.4-2-1.8-3.7-3.7-5.7-5.2-5.5-4.4-12-5.5-18.8-6-6.3-.4-12-2.6-16.2-7.7-.4-.5-1.2-.9-1.9-1-6.7-.5-11.4-3.6-13.3-10.8-.7,1.5-1.4,2.5-1.8,3.7-1.6,5.3-1.2,10.6.8,15.8,3.9,10.2,11.6,17.2,20.3,23.3,4.6,3.2,9.5,6.2,14,9.6,6.2,4.7,9.9,11,11,18.9,1.2,9.4-1,18.1-4.6,26.6-2.4,5.8-5.4,11.4-8.2,17.1,8.8,1.4,16.8,7,26.3,5.6,0-.4,0-.7,0-1-.2-.8-.4-1.5-.6-2.2-2.8-9.8-4.4-19.8-4.1-30.1.5-16.2,7.7-26,23-31.5,8.3-3,16.7-5.8,24.5-9.8,8.4-4.2,14.6-10.9,16.9-20.4,1-2.8,1.5-5.8-.2-9h0Z"/>
    </g>
  </g>
</svg>