<?xml version="1.0" encoding="UTF-8"?>
<svg id="_лой_2" data-name=" лой 2" xmlns="http://www.w3.org/2000/svg" version="1.1" viewBox="0 0 200 200">
  <defs>
    <style>
      .cls-1 {
        fill: #00a6fb;
      }

      .cls-1, .cls-2 {
        stroke-width: 0px;
      }

      .cls-2 {
        fill: #f4f0ea;
      }
    </style>
  </defs>
  <g id="_лой_1-2" data-name=" лой 1-2">
    <circle class="cls-2" cx="100" cy="100" r="100"/>
    <g>
      <path class="cls-1" d="M96.1,16.7c2,.5,4,.8,6,1.5,10.3,3.6,17.1,10.6,19,21.5,1.9,11-2.1,19.9-10.9,26.6-.2.2-.4.3-.8.7,1.7.9,3.2,1.8,4.8,2.7,9.6,4.9,19.9,7.5,30.4,9.5.7.1,1.4.2,2.1.4,2.4.5,3.7,2.2,3.6,4.5-.1,2.3-1.6,4.1-4,4.1-7.6.2-15.3.4-22.9.2-4,0-8.1-.9-12-1.4-2.9,4.5-5.2,9.4-5,15.1,1,.3,2.1.4,3.1.9,2.9,1.3,4.2,4.7,3.2,8.2-.2.6-.2,1.4.1,1.9,5.2,7.5,6.8,15.9,6.5,24.7-.2,4.6-.9,9.1-1.4,13.7,0,.2,0,.4,0,.7,3,1.2,5.9,1.2,8.8,0,5-2.2,8.1-6.3,10.9-10.8.2-.3.2-.8.1-1.2-.5-3.9-2.3-7-5.4-9.5-2.1-1.6-4.1-3.4-5.9-5.3-5.1-5.8-6.4-12.5-3.4-19.7,1.5-3.5,3.9-6.6,5.9-9.8.7-1.1,1.8-1.4,3-.8,1.1.5,1.4,1.4,1.5,2.7.2,3.1.2,6.3.9,9.3.9,3.7,3.3,6.1,7.3,6.7,3.4.5,6.3,2.1,8.4,5,.3.3,1,.7,1.4.5,2.4-.6,4.9-.5,7.2.2,4.9,1.6,8.7,0,11.8-3.8,1.1-1.3,1.8-3,2.8-4.3.6-.7,1.7-1.3,2.5-1.3.7,0,1.8,1,2,1.7,1.3,4.8,1.9,9.7.6,14.6-.9,3.6-2.9,6.4-5.9,8.5-1.3.9-2.6.6-3.4-.5-.8-1.1-.7-2.5.5-3.3,4.1-2.9,4.9-7.1,4.6-12-.6.5-.9.9-1.3,1.2-4.3,4.2-9.2,5.8-15,4-2.5-.8-4.9-.8-7.2.7-1.6,1-3.1.4-3.7-1.5-1-2.9-3.1-4.5-5.9-4.9-6.6-1-10-5.3-11.7-11.3,0-.3-.2-.6-.2-.9,0-.3-.1-.6-.3-1.4-1.9,3.4-2.8,6.7-2.2,10.2.8,4.6,3.8,7.8,7.2,10.7,1.7,1.5,3.5,2.9,5,4.6,2.5,3,3.6,6.6,3.9,10.5,0,1.1.1,2.1,1.4,2.4,1.2.3,1.7-.7,2.2-1.5,2.9-4.1,6.7-6.8,11.7-7.5,1.8-.3,2.8.3,3.1,1.8.3,1.5-.5,2.4-2.2,3-1.5.5-3.1.9-4.5,1.7-2.1,1.1-3.4,2.8-3.9,5.4-2,9.8-5.8,18.8-13,26.1-6,6.1-13.2,9.9-21.8,10.9-.3,0-.6.2-.9.3h-6.5c-3.2-.7-6.4-1.2-9.4-2.2-14.7-5.1-23.2-15.8-26.9-30.6-2.6-10.5-1.9-21,1.5-31.2.4-1.1.7-2.2,1.3-3.2,1.3-2.3,2.2-4.4,1.7-7.3-.7-3.8,2.5-6.7,6.4-6.7h1.4c-.5-2.9-1-5.7-1.5-8.4,0-.3-.3-.6-.5-.8-1.3-1.8-2.7-3.7-4.1-5.7-3.7.6-7.8,1.3-11.9,1.8-7.3.9-14.6.7-21.9,0-2.5-.3-4-2-4.2-4.4-.1-2.7,1.2-4.5,3.8-5.1,6.3-1.4,12.7-2.8,19-4.2.8-.2,1.5-.5,2.8-.9-2.9-.6-5.3-1-7.7-1.6-5.9-1.2-11.9-2.6-18-2.2-6.9.5-11.2,4-13,10.7-.2.9-.9,2-1.7,2.5-1.3.8-2.8-.1-3.2-1.7-3.9-13.4,2.1-25.9,15.6-30.2,3-1,6.2-1.5,9.4-1.6,7.5-.3,13-3.6,16.7-10.1,1-1.7,1.8-3.6,2.7-5.3.8-1.6,2-2.2,3.4-1.6,1.4.6,1.8,1.9,1.1,3.6-2.2,5-4.9,9.8-9.3,13.4-4,3.2-8.5,4.6-13.5,4.9-4.8.3-9.5,1-13.7,3.5-4.6,2.7-7.2,6.7-8.3,11.9,0,.3,0,.7,0,1s0,.3.2.6c3.9-4.3,8.8-6.3,14.3-6.4,3.4,0,6.8.2,10.2.7,6.6,1,13.2,2.3,19.8,3.6,2.9.5,5.6.2,8.2-1.6s4.7-3,7-4.4c-1.4-1.9-3-3.5-4-5.5-1.1-1.9-1.9-4-2.4-6.1-.7-2.8.3-3.6,3.1-4.1,2.9-.5,5.8-1.2,8.6-2.3,3.8-1.5,6.6-4.3,8.4-8,1.5-3,3.8-4.2,6.5-3.6,3,.7,4.6,2.9,4.6,6.2,0,3.1,0,6.2,0,9.3,0,4.2-1.7,7.8-4.4,10.9-.7.8-1.4,1.6-2.1,2.5l.2.5c.6-.1,1.2-.2,1.6-.5,11-6.7,13.9-20.9,6.7-31.7-7.2-10.6-22.2-13.3-32.8-5.9-.4.2-.7.5-1.1.8-1.4.9-2.8.8-3.6-.4-.8-1.2-.6-2.5.7-3.5,3.4-2.6,7.1-4.4,11.2-5.2.9-.2,1.9-.4,2.8-.6h6.2,0ZM109.1,116.4c-9.8,6.3-19.3,6.3-28.9-.2-.3.6-.7,1.3-1.1,2-2.5,5.3-3.8,10.8-3.9,16.6-.4,11.9,2.5,22.9,10.4,32.1,10.1,11.8,28.1,15,41.2,7.2,8.8-5.2,14-13.2,17.1-22.8.3-1,.6-2.1.8-3-1.7-.6-3.2-1.1-4.7-1.6-1.5,1.7-3,3.5-4.7,5.2-3.4,3.2-7.2,5.5-12,5.9-6.8.6-11.8-3-16.4-7.3-1-.9-.9-2.2,0-3.2.9-1,2.1-1.1,3.2-.3,1,.7,1.9,1.5,3,2.5,1.7-11.7,2.5-23-4.1-33.2h0ZM84.5,53.5c.3.5.5,1.4,1,2.1,1.7,2.1,3.4,4.2,5.3,6.1,1.6,1.7,1.7,3,0,4.5-.7.6-1.5,1.1-2.2,1.7-10.7,7.9-22.8,12.3-35.7,15-2.2.5-4.5.9-6.7,1.3,10.6,1.1,21.1.7,31.3-2,.6-.2,1.3-.8,1.6-1.3,1.1-2.1,2.6-3.9,4.8-5,5.1-2.5,10.4-3.5,15.9-2.1,4.2,1,8.1,2.5,10.3,6.7.3.6,1.2,1.3,1.9,1.4,9.5,2.4,19.1,2.2,29,1.9-.3-.2-.4-.3-.6-.3-.4-.1-.7-.2-1.1-.3-12.3-2.2-23.8-6.4-34.4-13.1-2-1.3-3.9-2.7-5.8-4.2-1.9-1.5-1.8-2.8-.1-4.5.9-.9,1.8-1.8,2.7-2.8,2.8-2.9,4.1-6.3,4-10.3,0-2.4,0-4.9-.1-7.3,0-.6-.4-1.2-.7-1.8-.4.4-1,.7-1.3,1.2-2.1,4-5.1,7.3-9.1,9.2-3.1,1.5-6.5,2.5-10,3.8h0ZM94.7,90.5h0c1.9,0,3.9,0,5.8,0,2.9-.1,5.1-2.1,5.6-5,.4-2.5-.8-4.5-3.5-5.7-5.2-2.3-10.4-2.3-15.6,0-2.9,1.2-4.1,3.3-3.6,6,.5,2.8,2.7,4.7,5.7,4.8,1.8,0,3.7,0,5.5,0h0ZM88.2,95.4c.2,3,.4,5.8.7,8.6,0,.5.6,1.2,1,1.4,2.6,1.3,5.3,1.4,8.1.6,2.9-.9,3.2-1.2,3.3-4.2,0-.7.1-1.3.2-1.9.2-1.5.3-2.9.5-4.4h-13.8ZM93.2,116c4.9,0,8.2-.5,11.1-2.4,1.4-.9,2.5-2.3,3.5-3.7.3-.5.3-1.8,0-2.1-.5-.4-1.6-.3-2.3-.2-.5,0-1,.7-1.5.9-1.6.8-3.1,1.8-4.8,2.2-5.2,1.5-9.9.3-14.3-2.8-1-.7-2.3-1.8-3.4-.4-1,1.3.1,2.3.9,3.3,3.2,4,7.7,5,11,5.1h0Z"/>
      <path class="cls-1" d="M109.1,116.4c6.6,10.3,5.9,21.5,4.1,33.2-1.2-1-2.1-1.8-3-2.5-1.1-.9-2.2-.7-3.2.3-1,1-1.1,2.3,0,3.2,4.6,4.4,9.6,7.9,16.4,7.3,4.8-.4,8.6-2.7,12-5.9,1.7-1.6,3.2-3.5,4.7-5.2,1.5.5,3,1,4.7,1.6-.2.9-.5,1.9-.8,3-3.1,9.5-8.3,17.5-17.1,22.8-13.1,7.8-31.1,4.6-41.2-7.2-7.9-9.2-10.8-20.2-10.4-32.1.2-5.8,1.4-11.4,3.9-16.6.3-.7.7-1.3,1.1-2,9.6,6.5,19.2,6.5,28.9.2h0Z"/>
      <path class="cls-1" d="M84.5,53.5c3.5-1.3,6.9-2.3,10-3.8,4.1-2,7-5.2,9.1-9.2.3-.5.8-.8,1.3-1.2.2.6.7,1.2.7,1.8.1,2.4,0,4.9.1,7.3,0,4-1.2,7.4-4,10.3-.9.9-1.8,1.9-2.7,2.8-1.7,1.7-1.7,3,.1,4.5,1.9,1.5,3.8,2.9,5.8,4.2,10.5,6.8,22.1,10.9,34.4,13.1.4,0,.7.2,1.1.3.1,0,.2.1.6.3-9.9.3-19.5.5-29-1.9-.7-.2-1.5-.8-1.9-1.4-2.2-4.2-6.1-5.6-10.3-6.7-5.6-1.4-10.9-.4-15.9,2.1-2.2,1.1-3.7,2.8-4.8,5-.3.6-1,1.2-1.6,1.3-10.3,2.7-20.8,3.1-31.3,2,2.2-.4,4.5-.9,6.7-1.3,12.9-2.7,25-7.1,35.7-15,.7-.6,1.5-1.1,2.2-1.7,1.8-1.5,1.7-2.8,0-4.5-1.9-1.9-3.6-4-5.3-6.1-.5-.6-.8-1.5-1-2.1h0Z"/>
      <path class="cls-1" d="M94.7,90.5c-1.8,0-3.7,0-5.5,0-3,0-5.2-2-5.7-4.8-.5-2.7.7-4.7,3.6-6,5.2-2.3,10.4-2.2,15.6,0,2.7,1.2,3.9,3.2,3.5,5.7-.5,2.9-2.7,4.9-5.6,5-1.9,0-3.9,0-5.8,0h0Z"/>
      <path class="cls-1" d="M88.2,95.4h13.8c-.2,1.4-.3,2.9-.5,4.4,0,.7-.2,1.3-.2,1.9-.2,3-.4,3.3-3.3,4.2-2.8.9-5.5.7-8.1-.6-.5-.2-1-.9-1-1.4-.3-2.8-.5-5.6-.7-8.6h0Z"/>
      <path class="cls-1" d="M93.1,116c-3.3-.1-7.8-1.1-11-5.1-.8-.9-1.9-2-.9-3.3,1.1-1.4,2.4-.3,3.4.4,4.4,3.1,9.1,4.3,14.3,2.8,1.7-.5,3.2-1.5,4.8-2.2.5-.3,1-.8,1.5-.9.8-.1,1.8-.2,2.3.2.4.3.4,1.7,0,2.1-1,1.4-2.1,2.8-3.5,3.7-2.9,1.9-6.2,2.5-11.1,2.4h0Z"/>
    </g>
  </g>
</svg>