<?xml version="1.0" encoding="UTF-8"?>
<svg id="_лой_2" data-name=" лой 2" xmlns="http://www.w3.org/2000/svg" version="1.1" viewBox="0 0 82.5 82.5">
  <defs>
    <style>
      .cls-1 {
        fill: none;
      }

      .cls-1, .cls-2 {
        stroke-linecap: round;
        stroke-linejoin: round;
        stroke-width: 2.5px;
      }

      .cls-1, .cls-2, .cls-3 {
        stroke: #f4f0ea;
      }

      .cls-2 {
        fill: #f77f00;
      }

      .cls-3 {
        stroke-miterlimit: 10;
      }

      .cls-3, .cls-4 {
        fill: #f4f0ea;
      }

      .cls-4 {
        stroke-width: 0px;
      }
    </style>
  </defs>
  <g id="_лой_1-2" data-name=" лой 1-2">
    <circle class="cls-2" cx="41.2" cy="41.3" r="40"/>
    <g>
      <g>
        <path class="cls-1" d="M30.5,12.6c-8.6,3.2-15.3,10.2-18.2,18.9-1,3.1-1.6,6.3-1.6,9.8s.9,8.3,2.4,12c3.3,7.7,9.6,13.8,17.5,16.7,3.3,1.2,7,1.9,10.7,1.9s7.4-.7,10.7-1.9c7.9-2.9,14.2-9,17.5-16.7,1.6-3.7,2.4-7.7,2.4-12s-.6-6.7-1.6-9.8c-2.9-8.7-9.7-15.7-18.2-18.9h0c-3.4-1.3-7-2-10.8-2s-7.4.7-10.8,2"/>
        <path class="cls-1" d="M47.7,27.7c3.4,1.6,6.1,4.5,7.5,8.1.7,1.7,1,3.5,1,5.4,0,8.3-6.7,15-15,15s-4.3-.5-6.2-1.3c-5.2-2.4-8.8-7.6-8.8-13.7s.4-3.7,1-5.4c1.4-3.6,4.1-6.5,7.5-8.1,2-1,4.2-1.5,6.5-1.5s4,.4,5.8,1.2c.2,0,.4.2.6.3Z"/>
        <polyline class="cls-1" points="34.8 27.7 30.5 12.6 30.5 12.6"/>
        <line class="cls-1" x1="47.7" y1="27.7" x2="52" y2="12.6"/>
      </g>
      <path class="cls-4" d="M48.4,26.8c-1.8-.4-4.1-.9-6.9-.9s-5.1.4-6.9.9c-1.4-4.9-2.8-9.7-4.1-14.6,2.7-.8,6.7-1.6,11.5-1.4,3.9.2,7.2.9,9.6,1.7l-3.2,14.2h0Z"/>
      <path class="cls-4" d="M48,55.3c-1.8.4-4.1.9-6.9.9s-5.1-.4-6.9-.9c-1.4,4.8-2.8,9.7-4.1,14.6,2.7.8,6.7,1.6,11.5,1.4,3.9-.2,7.2-.9,9.6-1.7l-3.2-14.2h0Z"/>
      <path class="cls-3" d="M26.6,34.5c-.4,1.8-.9,4.1-.9,6.9s.4,5.1.9,6.9c-4.9,1.4-9.7,2.8-14.6,4.1-.8-2.7-1.6-6.7-1.4-11.5.2-3.9.9-7.2,1.7-9.6l14.2,3.2h0Z"/>
      <path class="cls-4" d="M55.4,35.3c.4,1.8.9,4.1.9,6.9s-.4,5.1-.9,6.9c4.8,1.4,9.7,2.8,14.6,4.1.8-2.7,1.6-6.7,1.4-11.5-.2-3.9-.9-7.2-1.7-9.6l-14.2,3.2h0Z"/>
      <polyline class="cls-1" points="34.5 55.9 30.5 69.9 30.5 70"/>
      <polyline class="cls-1" points="48 55.9 52 69.9 52 70"/>
      <polyline class="cls-1" points="27.1 49.3 13.1 53.3 13 53.3"/>
      <line class="cls-1" x1="27.1" y1="35.8" x2="13" y2="31.8"/>
      <polyline class="cls-1" points="55.4 49.3 69.4 53.3 69.5 53.3"/>
      <line class="cls-1" x1="55.4" y1="35.8" x2="69.5" y2="31.8"/>
    </g>
  </g>
</svg>