<?xml version="1.0" encoding="utf-8"?>
<!-- Generator: Adobe Illustrator 28.3.0, SVG Export Plug-In . SVG Version: 6.00 Build 0)  -->
<svg version="1.1" id="_лой_2" xmlns="http://www.w3.org/2000/svg" xmlns:xlink="http://www.w3.org/1999/xlink" x="0px" y="0px"
	 viewBox="0 0 82.5 82.5" style="enable-background:new 0 0 82.5 82.5;" xml:space="preserve">
<style type="text/css">
	.st0{fill:#F77F00;stroke:#F4F0EA;stroke-width:2.5;stroke-linecap:round;stroke-linejoin:round;}
	.st1{fill:#F4F0EA;}
</style>
<circle class="st0" cx="41.2" cy="41.3" r="40"/>
<g>
	<g>
		<path class="st1" d="M34.5,41.8v7h-0.8v-8.5h0.7l5.6,7.1v-7.1h0.8v8.5H40L34.5,41.8z"/>
		<path class="st1" d="M45.5,40.2h0.7l3.5,8.5h-0.9L47.7,46h-3.9l-1.1,2.7H42L45.5,40.2z M47.6,45.4l-1.7-4.2l-1.7,4.2H47.6z"/>
	</g>
</g>
<g>
	<g>
		<path class="st1" d="M36.8,27.9c0.7,0.1,1.2,0.4,1.7,0.8s0.9,0.9,1.1,1.5c0.3,0.6,0.4,1.3,0.4,2c0,1-0.2,1.8-0.7,2.5
			s-1.2,1.3-2.1,1.7S35.2,37,34,37s-2.2-0.2-3.1-0.6c-0.9-0.4-1.7-0.9-2.3-1.7l1.8-2.2c0.4,0.5,0.9,0.9,1.4,1.2
			c0.6,0.3,1.3,0.4,2.1,0.4c0.9,0,1.7-0.2,2.2-0.6s0.7-1,0.7-1.8s-0.3-1.5-0.9-1.9s-1.4-0.7-2.6-0.7h-0.7v-2.3h0.7
			c0.9,0,1.7-0.2,2.2-0.7c0.5-0.4,0.8-1,0.8-1.7c0-0.4-0.1-0.8-0.3-1.1c-0.2-0.3-0.5-0.5-0.8-0.6c-0.4-0.1-0.8-0.2-1.2-0.2
			c-0.7,0-1.4,0.2-1.9,0.5s-1,0.8-1.4,1.4l-2-2.2c0.3-0.5,0.8-0.9,1.3-1.2c0.6-0.4,1.2-0.6,2-0.8c0.7-0.2,1.5-0.3,2.3-0.3
			c1.1,0,2,0.2,2.8,0.5s1.4,0.8,1.9,1.5c0.4,0.6,0.7,1.4,0.7,2.2c0,0.6-0.1,1.2-0.4,1.7c-0.2,0.5-0.6,1-1,1.4S37.4,27.7,36.8,27.9z"
			/>
		<path class="st1" d="M49.8,27.9c0.7,0.1,1.2,0.4,1.7,0.8s0.9,0.9,1.1,1.5c0.3,0.6,0.4,1.3,0.4,2c0,1-0.2,1.8-0.7,2.5
			s-1.2,1.3-2.1,1.7S48.2,37,47,37s-2.2-0.2-3.1-0.6c-0.9-0.4-1.7-0.9-2.3-1.7l1.8-2.2c0.4,0.5,0.9,0.9,1.4,1.2
			c0.6,0.3,1.3,0.4,2.1,0.4c0.9,0,1.7-0.2,2.2-0.6s0.7-1,0.7-1.8s-0.3-1.5-0.9-1.9s-1.4-0.7-2.6-0.7h-0.7v-2.3h0.7
			c0.9,0,1.7-0.2,2.2-0.7c0.5-0.4,0.8-1,0.8-1.7c0-0.4-0.1-0.8-0.3-1.1c-0.2-0.3-0.5-0.5-0.8-0.6c-0.4-0.1-0.8-0.2-1.2-0.2
			c-0.7,0-1.4,0.2-1.9,0.5s-1,0.8-1.4,1.4l-2-2.2c0.3-0.5,0.8-0.9,1.3-1.2c0.6-0.4,1.2-0.6,2-0.8c0.7-0.2,1.5-0.3,2.3-0.3
			c1.1,0,2,0.2,2.8,0.5s1.4,0.8,1.9,1.5c0.4,0.6,0.7,1.4,0.7,2.2c0,0.6-0.1,1.2-0.4,1.7c-0.2,0.5-0.6,1-1,1.4S50.4,27.7,49.8,27.9z"
			/>
	</g>
</g>
</svg>
