<?xml version="1.0" encoding="utf-8"?>
<!-- Generator: Adobe Illustrator 28.3.0, SVG Export Plug-In . SVG Version: 6.00 Build 0)  -->
<svg version="1.1" id="_лой_2" xmlns="http://www.w3.org/2000/svg" xmlns:xlink="http://www.w3.org/1999/xlink" x="0px" y="0px"
	 viewBox="0 0 82.5 82.5" style="enable-background:new 0 0 82.5 82.5;" xml:space="preserve">
<style type="text/css">
	.st0{fill:#F77F00;stroke:#FFF1D6;stroke-width:2.5;stroke-linecap:round;stroke-linejoin:round;}
	.st1{fill:none;stroke:#FFF1D6;stroke-width:3;stroke-linecap:round;stroke-linejoin:round;}
</style>
<g id="_лой_1-2">
	<circle class="st0" cx="41.2" cy="41.2" r="40"/>
	<g>
		<circle class="st1" cx="61.9" cy="35.5" r="8.9"/>
		<path class="st1" d="M72.4,49.7c-0.8,0-2,0.1-3.4,0.3c0,0-0.5,0.1-1.1,0.3c-2.2,0.6-4.2,1.9-4.7,2.1c-3.9,1.3-5.8-2.6-11-2.9
			c-5-0.3-5.3,3.2-10.6,3.2c-5.7,0-6.2-4.1-11.2-3.5c-3.8,0.5-6.3,3.2-10.6,3c-0.8,0-1.7-0.1-2.8-0.5c-1.9-0.6-2.5-1.5-4.3-2
			c-1.1-0.3-2-0.3-2.7-0.3l2.4,0.1l18.6-11.1c0.1,0,1.1-0.5,1.3-1.5c0.2-0.8-0.2-1.5-0.2-1.6c-1-1.8-2-3.5-3.1-5.2
			c-0.1-0.3-0.8-1.5-0.4-3.1c0.5-1.7,1.9-2.5,2.2-2.6c7.7-3.6,15.4-7.2,23.1-10.8c1.7-0.4,3.4,0.3,4.3,1.8c0.9,1.5,0.5,3.5-0.8,4.7
			c-5.3,2.7-10.6,5.3-15.9,8c-0.1,0-1.1,0.5-1.4,1.5c-0.3,1.1,0.4,2,0.5,2.1c3.7,5.3,8.6,12.4,12.3,17.8c1.7,0.1,2.9,0.6,3.7,1
			c0.8,0.5,1.3,1,2.5,1.5c0.3,0.1,1.2,0.5,2.1,0.6c1.8,0.2,3.2-0.8,4.4-1.5C67.1,50.5,69.2,49.7,72.4,49.7L72.4,49.7z"/>
		<path class="st1" d="M10.1,58.5c0.7,0,1.7,0,2.7,0.3c1.8,0.5,2.4,1.4,4.3,2c1.1,0.3,2,0.4,2.8,0.5c4.3,0.3,6.8-2.5,10.6-3
			c4.9-0.6,5.5,3.5,11.2,3.5c5.3,0,5.6-3.5,10.6-3.2c5.1,0.3,7,4.2,11,2.9c1.5-0.5,2.1-1.4,4.7-2.1c1.8-0.5,3.4-0.6,4.4-0.6"/>
	</g>
</g>
</svg>
