<?xml version="1.0" encoding="utf-8"?>
<!-- Generator: Adobe Illustrator 28.3.0, SVG Export Plug-In . SVG Version: 6.00 Build 0)  -->
<svg version="1.1" id="_лой_2" xmlns="http://www.w3.org/2000/svg" xmlns:xlink="http://www.w3.org/1999/xlink" x="0px" y="0px"
	 viewBox="0 0 82.5 82.5" style="enable-background:new 0 0 82.5 82.5;" xml:space="preserve">
<style type="text/css">
	.st0{fill:#F77F00;stroke:#F4F0EA;stroke-width:2.5;stroke-linecap:round;stroke-linejoin:round;}
	.st1{fill:#F4F0EA;}
</style>
<circle class="st0" cx="41.2" cy="41.2" r="40"/>
<g>
	<g>
		<path class="st1" d="M16.6,40.2c-0.1-0.1-0.3-0.3-0.4-0.4s-0.3-0.2-0.5-0.3s-0.4-0.1-0.6-0.2c-0.2,0-0.5-0.1-0.7-0.1
			c-0.7,0-1.3,0.1-1.6,0.4c-0.3,0.3-0.5,0.7-0.5,1.2c0,0.3,0.1,0.6,0.2,0.8c0.2,0.2,0.4,0.3,0.8,0.5c0.4,0.1,0.8,0.2,1.3,0.4
			c0.6,0.1,1.1,0.3,1.6,0.5s0.8,0.4,1,0.7s0.4,0.7,0.4,1.2c0,0.4-0.1,0.7-0.2,1c-0.2,0.3-0.4,0.5-0.6,0.7c-0.3,0.2-0.6,0.3-1,0.4
			s-0.8,0.1-1.2,0.1s-0.9,0-1.3-0.1c-0.4-0.1-0.8-0.2-1.1-0.4s-0.7-0.4-1-0.7l0.4-0.7c0.2,0.2,0.3,0.3,0.5,0.5
			c0.2,0.1,0.4,0.3,0.7,0.4c0.3,0.1,0.5,0.2,0.8,0.3s0.6,0.1,0.9,0.1c0.7,0,1.2-0.1,1.6-0.4c0.4-0.2,0.6-0.6,0.6-1.1
			c0-0.4-0.1-0.6-0.3-0.8c-0.2-0.2-0.5-0.4-0.9-0.5s-0.9-0.3-1.4-0.4c-0.6-0.1-1.1-0.3-1.5-0.5s-0.7-0.4-0.9-0.7s-0.3-0.6-0.3-1.1
			s0.1-1,0.4-1.3c0.3-0.4,0.6-0.6,1.1-0.8s1-0.3,1.6-0.3c0.4,0,0.7,0,1.1,0.1c0.3,0.1,0.6,0.2,0.9,0.3c0.3,0.1,0.5,0.3,0.8,0.5
			L16.6,40.2z"/>
		<path class="st1" d="M26.6,40.9h0.8l-2.7,6.2H24L22.7,44l-1.3,3.1h-0.7L18,40.9h0.8l2.3,5.4l1.2-2.8l-1.1-2.6h0.7l0.8,2l0.8-2h0.7
			l-1,2.6l1.2,2.8L26.6,40.9z"/>
		<path class="st1" d="M28.5,39.5v-1.2h0.8v1.2H28.5z M28.5,47.1v-6.3h0.8v6.3H28.5z"/>
		<path class="st1" d="M40.4,47.1h-0.8v-3.5c0-0.7-0.1-1.3-0.3-1.6s-0.6-0.5-1-0.5c-0.5,0-0.9,0.2-1.3,0.5c-0.4,0.3-0.6,0.8-0.8,1.3
			v3.8h-0.8v-3.5c0-0.7-0.1-1.3-0.3-1.6s-0.6-0.5-1-0.5c-0.5,0-0.9,0.2-1.3,0.5s-0.6,0.8-0.8,1.3v3.8h-0.8v-6.2h0.7v1.4
			c0.3-0.5,0.6-0.9,1-1.1c0.4-0.3,0.9-0.4,1.4-0.4s0.9,0.1,1.3,0.4s0.5,0.7,0.6,1.2c0.3-0.5,0.6-0.9,1-1.2s0.9-0.4,1.4-0.4
			c0.4,0,0.6,0.1,0.9,0.2c0.2,0.1,0.4,0.3,0.6,0.5c0.1,0.2,0.3,0.5,0.3,0.8c0.1,0.3,0.1,0.7,0.1,1.1v3.7H40.4z"/>
		<path class="st1" d="M51.4,47.1h-0.8v-3.5c0-0.7-0.1-1.3-0.3-1.6s-0.6-0.5-1-0.5c-0.5,0-0.9,0.2-1.3,0.5c-0.4,0.3-0.6,0.8-0.8,1.3
			v3.8h-0.8v-3.5c0-0.7-0.1-1.3-0.3-1.6s-0.6-0.5-1-0.5s-0.9,0.2-1.3,0.5s-0.6,0.8-0.8,1.3v3.8h-0.8v-6.2h0.7v1.4
			c0.3-0.5,0.6-0.9,1-1.1c0.4-0.3,0.9-0.4,1.4-0.4s0.9,0.1,1.3,0.4s0.5,0.7,0.6,1.2c0.3-0.5,0.6-0.9,1-1.2s0.9-0.4,1.4-0.4
			c0.4,0,0.6,0.1,0.9,0.2c0.2,0.1,0.4,0.3,0.6,0.5c0.1,0.2,0.3,0.5,0.3,0.8c0.1,0.3,0.1,0.7,0.1,1.1v3.7H51.4z"/>
		<path class="st1" d="M53.1,39.5v-1.2h0.8v1.2H53.1z M53.1,47.1v-6.3h0.8v6.3H53.1z"/>
		<path class="st1" d="M61,47.1h-0.8v-3.5c0-0.7-0.1-1.3-0.3-1.6s-0.6-0.5-1-0.5c-0.3,0-0.6,0.1-0.9,0.2c-0.3,0.2-0.6,0.4-0.8,0.6
			c-0.2,0.3-0.4,0.6-0.5,0.9V47h-0.8v-6.2h0.7v1.4c0.2-0.3,0.4-0.6,0.7-0.8s0.6-0.4,0.9-0.5c0.3-0.1,0.7-0.2,1.1-0.2
			c0.3,0,0.6,0.1,0.9,0.2c0.2,0.1,0.4,0.3,0.6,0.5c0.1,0.2,0.2,0.5,0.3,0.8C61,42.7,61,43,61,43.4V47.1z"/>
		<path class="st1" d="M65.2,47.2c-0.4,0-0.8-0.1-1.2-0.3c-0.4-0.2-0.7-0.4-0.9-0.7s-0.5-0.6-0.6-1s-0.2-0.8-0.2-1.2
			s0.1-0.9,0.2-1.2c0.1-0.4,0.3-0.7,0.6-1s0.6-0.5,0.9-0.7c0.4-0.2,0.7-0.3,1.2-0.3s1,0.1,1.4,0.4c0.4,0.3,0.7,0.6,1,1v-1.3h0.7v6.3
			c0,0.6-0.1,1.1-0.4,1.5s-0.6,0.7-1.1,0.9s-1,0.3-1.5,0.3c-0.7,0-1.3-0.1-1.7-0.4c-0.4-0.3-0.8-0.6-1.1-1L63,48
			c0.2,0.4,0.6,0.7,1,0.9s0.9,0.3,1.3,0.3s0.8-0.1,1.1-0.2c0.3-0.1,0.6-0.4,0.8-0.7c0.2-0.3,0.3-0.7,0.3-1.1V46
			c-0.2,0.4-0.6,0.7-1,0.9C66.1,47.1,65.7,47.2,65.2,47.2z M65.5,46.5c0.2,0,0.5,0,0.7-0.1s0.4-0.2,0.6-0.4c0.2-0.1,0.4-0.3,0.5-0.5
			s0.2-0.4,0.2-0.6V43c-0.1-0.3-0.3-0.6-0.5-0.8s-0.5-0.4-0.8-0.6c-0.3-0.1-0.6-0.2-0.9-0.2c-0.4,0-0.7,0.1-0.9,0.2
			c-0.3,0.1-0.5,0.3-0.7,0.6c-0.2,0.2-0.3,0.5-0.4,0.8c-0.1,0.3-0.2,0.6-0.2,0.9c0,0.3,0.1,0.7,0.2,1s0.3,0.6,0.5,0.8
			s0.5,0.4,0.7,0.5C64.9,46.5,65.2,46.5,65.5,46.5z"/>
		<path class="st1" d="M35.3,53v8.5h-0.8v-4h-5.1v4h-0.8V53h0.8v3.8h5.1V53H35.3z"/>
		<path class="st1" d="M36.8,59.7c0-0.4,0.1-0.7,0.3-1s0.5-0.5,0.9-0.7s0.9-0.2,1.4-0.2c0.3,0,0.6,0,0.9,0.1s0.6,0.1,0.9,0.2v-0.5
			c0-0.5-0.2-0.9-0.5-1.3c-0.3-0.3-0.7-0.5-1.3-0.5c-0.3,0-0.7,0.1-1,0.2c-0.3,0.1-0.7,0.3-1,0.5L37.2,56c0.4-0.3,0.8-0.5,1.2-0.6
			s0.8-0.2,1.2-0.2c0.8,0,1.4,0.2,1.8,0.7s0.7,1,0.7,1.8v2.9c0,0.1,0,0.2,0.1,0.2s0.1,0.1,0.2,0.1v0.6c-0.1,0-0.2,0-0.2,0
			c-0.1,0-0.1,0-0.1,0c-0.2,0-0.4-0.1-0.5-0.2c-0.1-0.1-0.2-0.2-0.2-0.4v-0.5c-0.3,0.4-0.6,0.6-1.1,0.8c-0.4,0.2-0.9,0.3-1.4,0.3
			c-0.4,0-0.8-0.1-1.1-0.3s-0.6-0.4-0.8-0.7S36.8,60,36.8,59.7z M41,60.2c0.1-0.1,0.2-0.2,0.2-0.3s0.1-0.2,0.1-0.3v-0.9
			c-0.3-0.1-0.6-0.2-0.8-0.2s-0.6-0.1-0.9-0.1c-0.6,0-1.1,0.1-1.4,0.3c-0.4,0.2-0.5,0.5-0.5,0.9c0,0.2,0.1,0.4,0.2,0.6
			s0.3,0.4,0.5,0.5s0.5,0.2,0.8,0.2c0.4,0,0.8-0.1,1.1-0.2C40.6,60.6,40.8,60.4,41,60.2z"/>
		<path class="st1" d="M43.9,52.7h0.8v7.4c0,0.3,0.1,0.5,0.2,0.6s0.2,0.1,0.4,0.1c0.1,0,0.3,0,0.4,0c0.1,0,0.3-0.1,0.4-0.1l0.1,0.7
			c-0.2,0.1-0.3,0.1-0.6,0.2s-0.4,0.1-0.6,0.1c-0.4,0-0.7-0.1-0.9-0.3s-0.3-0.5-0.3-0.9L43.9,52.7L43.9,52.7z"/>
		<path class="st1" d="M47.2,52.7H48v7.4c0,0.3,0.1,0.5,0.2,0.6s0.2,0.1,0.4,0.1c0.1,0,0.3,0,0.4,0c0.1,0,0.3-0.1,0.4-0.1l0.1,0.7
			c-0.2,0.1-0.3,0.1-0.6,0.2s-0.4,0.1-0.6,0.1c-0.4,0-0.7-0.1-0.9-0.3s-0.3-0.5-0.3-0.9L47.2,52.7L47.2,52.7z"/>
		<path class="st1" d="M52.4,61.6c-0.5,0-1-0.1-1.4-0.3s-0.8-0.4-1.1-0.8l0.3-0.6c0.4,0.3,0.7,0.6,1.1,0.7c0.4,0.1,0.7,0.2,1.1,0.2
			c0.5,0,0.9-0.1,1.2-0.3s0.5-0.5,0.5-0.8c0-0.2-0.1-0.4-0.2-0.6c-0.1-0.1-0.4-0.2-0.6-0.3c-0.3-0.1-0.6-0.2-1-0.3s-0.8-0.2-1.1-0.4
			c-0.3-0.1-0.5-0.3-0.7-0.5c-0.1-0.2-0.2-0.5-0.2-0.8c0-0.4,0.1-0.7,0.3-1s0.5-0.5,0.8-0.6c0.4-0.1,0.8-0.2,1.2-0.2
			c0.5,0,0.9,0.1,1.3,0.2c0.4,0.2,0.7,0.4,0.9,0.6l-0.4,0.6c-0.2-0.3-0.5-0.4-0.8-0.6c-0.3-0.1-0.6-0.2-1-0.2c-0.3,0-0.5,0-0.7,0.1
			s-0.4,0.2-0.6,0.3c-0.1,0.2-0.2,0.4-0.2,0.6c0,0.2,0.1,0.4,0.2,0.5c0.1,0.1,0.3,0.2,0.5,0.3s0.5,0.2,0.8,0.3
			c0.5,0.1,0.9,0.3,1.2,0.4c0.4,0.1,0.6,0.3,0.8,0.5s0.3,0.5,0.3,0.9c0,0.6-0.2,1-0.7,1.4C53.7,61.4,53.2,61.6,52.4,61.6z"/>
	</g>
</g>
<g>
	<g>
		<path class="st1" d="M40.1,29v2.8h-9.5V29H34v-7.1c-0.1,0.2-0.3,0.4-0.6,0.6s-0.6,0.4-1,0.6s-0.7,0.3-1.1,0.4s-0.7,0.2-1,0.2v-2.9
			c0.3,0,0.6-0.1,1-0.3c0.4-0.2,0.8-0.4,1.2-0.6c0.4-0.3,0.7-0.5,1-0.7s0.5-0.4,0.5-0.6h3.2V29H40.1z"/>
		<path class="st1" d="M48.9,21.4h-7.5v-2.8h12.4l-8.2,16.2h-3.5L48.9,21.4z"/>
	</g>
</g>
</svg>
